<svg fill="none" height="579" viewBox="0 0 627 579" width="627" xmlns="http://www.w3.org/2000/svg" xmlns:xlink="http://www.w3.org/1999/xlink"><linearGradient id="a" gradientUnits="userSpaceOnUse" x1="451.962" x2="4.45042" y1=".695246" y2="427.688"><stop offset="0" stop-color="#7f52f1"/><stop offset=".474784" stop-color="#5786f1"/><stop offset="1" stop-color="#1dd4f1"/></linearGradient><path d="m627 317.195c0 174.798-140.359 261.5-313.5 261.5s-313.5-86.702-313.5-261.5 140.359-316.499749 313.5-316.499749 313.5 141.701749 313.5 316.499749z" fill="url(#a)" opacity=".3"/><path d="m535.717 69.6953h-323.57c-2.197 0-4.304.8736-5.857 2.4287-1.553 1.5552-2.426 3.6644-2.426 5.8637v219.2953c0 2.2.873 4.309 2.426 5.864s3.66 2.429 5.857 2.429h323.57c2.197 0 4.304-.874 5.857-2.429s2.426-3.664 2.426-5.864v-219.2953c0-2.1993-.873-4.3085-2.426-5.8637-1.553-1.5551-3.66-2.4287-5.857-2.4287z" fill="#5468ff"/><path d="m535.717 69.6953h-323.57c-2.197 0-4.304.8736-5.857 2.4287-1.553 1.5552-2.426 3.6644-2.426 5.8637v219.2953c0 2.2.873 4.309 2.426 5.864s3.66 2.429 5.857 2.429h323.57c2.197 0 4.304-.874 5.857-2.429s2.426-3.664 2.426-5.864v-219.2953c0-2.1993-.873-4.3085-2.426-5.8637-1.553-1.5551-3.66-2.4287-5.857-2.4287z" fill="#000d44" opacity=".2"/><path d="m533.078 77.8182h-318.317v211.4608h318.317z" fill="#5468ff"/><path d="m533.078 78.0131h-318.317v31.5179h318.317z" fill="#000d44" opacity=".1"/><g fill="#fff"><path d="m351.166 109.904h-136.405v179.366h136.405z" opacity=".4"/><path d="m514.585 209.709h-2.538v-.847h1.692v-1.694h.846z"/><path d="m507.731 209.675h-4.315v-.847h4.315zm-8.621 0h-4.315v-.847h4.315zm-8.63 0h-4.315v-.847h4.315zm-8.621 0h-4.314v-.847h4.314zm-8.629 0h-4.349v-.847h4.315zm-8.621 0h-4.315v-.847h4.315zm-8.63 0h-4.314v-.847h4.314zm-8.621 0h-4.314v-.847h4.314zm-8.629 0h-4.315v-.847h4.315zm-8.621 0h-4.315v-.847h4.315zm-8.604 0h-4.315v-.847h4.315zm-8.621 0h-4.315v-.847h4.315zm-8.63 0h-4.314v-.847h4.314zm-8.62 0h-4.315v-.847h4.315zm-8.63 0h-4.315v-.847h4.315zm-8.646 0h-4.315v-.847h4.315z"/><path d="m369.728 209.709h-2.539v-2.541h.846v1.694h1.693z"/><path d="m368.035 202.899h-.846v-4.235h.846zm0-8.47h-.846v-4.236h.846zm0-8.471h-.846v-4.235h.846zm0-8.47h-.846v-4.235h.846zm0-8.47h-.846v-4.235h.846zm0-8.471h-.846v-4.235h.846zm0-8.47h-.846v-4.235h.846zm0-8.47h-.846v-4.235h.846zm0-8.47h-.846v-4.235h.846z"/><path d="m368.035 126.573h-.846v-2.541h2.539v.847h-1.693z"/><path d="m507.731 124.879h-4.315v-.847h4.315zm-8.621 0h-4.315v-.847h4.315zm-8.63 0h-4.315v-.847h4.315zm-8.621 0h-4.314v-.847h4.314zm-8.629 0h-4.349v-.847h4.315zm-8.621 0h-4.315v-.847h4.315zm-8.63 0h-4.314v-.847h4.314zm-8.621 0h-4.314v-.847h4.314zm-8.629 0h-4.315v-.847h4.315zm-8.621 0h-4.315v-.847h4.315zm-8.629 0h-4.315v-.847h4.34zm-8.621 0h-4.315v-.847h4.315zm-8.63 0h-4.315v-.847h4.315zm-8.621 0h-4.315v-.847h4.315zm-8.629 0h-4.315v-.847h4.315zm-8.621 0h-4.315v-.847h4.315z"/><path d="m514.585 126.573h-.846v-1.694h-1.692v-.847h2.538z"/><path d="m514.568 202.899h-.846v-4.235h.846zm0-8.47h-.846v-4.236h.846zm0-8.471h-.846v-4.235h.846zm0-8.47h-.846v-4.235h.846zm0-8.47h-.846v-4.235h.846zm0-8.471h-.846v-4.235h.846zm0-8.47h-.846v-4.235h.846zm0-8.47h-.846v-4.235h.846zm0-8.47h-.846v-4.235h.846z"/></g><path d="m516.606 121.999h-4.898v4.905h4.898z" fill="#5468ff" stroke="#fff" stroke-miterlimit="10"/><path d="m516.606 206.829h-4.898v4.904h4.898z" fill="#5468ff" stroke="#fff" stroke-miterlimit="10"/><path d="m370.066 121.999h-4.899v4.905h4.899z" fill="#5468ff" stroke="#fff" stroke-miterlimit="10"/><path d="m370.066 206.829h-4.899v4.904h4.899z" fill="#5468ff" stroke="#fff" stroke-miterlimit="10"/><path d="m443.34 121.999h-4.898v4.905h4.898z" fill="#5468ff" stroke="#fff" stroke-miterlimit="10"/><path d="m443.34 206.829h-4.898v4.904h4.898z" fill="#5468ff" stroke="#fff" stroke-miterlimit="10"/><path d="m370.066 164.418h-4.899v4.905h4.899z" fill="#5468ff" stroke="#fff" stroke-miterlimit="10"/><path d="m502.181 152.95h-38.511c-.883 0-1.599.716-1.599 1.601v12.248c0 .884.716 1.6 1.599 1.6h38.511c.883 0 1.599-.716 1.599-1.6v-12.248c0-.885-.716-1.601-1.599-1.601z" fill="#fff"/><path d="m440.362 152.95h-38.511c-.883 0-1.599.716-1.599 1.601v12.248c0 .884.716 1.6 1.599 1.6h38.511c.884 0 1.599-.716 1.599-1.6v-12.248c0-.885-.715-1.601-1.599-1.601z" fill="#fff"/><path d="m512.071 89.2193h10.592" stroke="#fff" stroke-linecap="round" stroke-linejoin="round" stroke-width="1.5"/><path d="m512.071 94.2506h10.592" stroke="#fff" stroke-linecap="round" stroke-linejoin="round" stroke-width="1.5"/><path d="m512.071 99.282h10.592" stroke="#fff" stroke-linecap="round" stroke-linejoin="round" stroke-width="1.5"/><path d="m343.104 137.712h-106.769v106.895h106.769z" fill="#fff"/><path d="m281.453 146.453h-.846v92.199h.846z" fill="#5468ff"/><path d="m327.08 239.075c-6.155.084-12.266-1.058-17.976-3.359-5.711-2.301-10.908-5.714-15.29-10.043-4.382-4.328-7.861-9.485-10.236-15.17-2.375-5.686-3.598-11.788-3.598-17.951 0-6.162 1.223-12.264 3.598-17.95 2.375-5.685 5.854-10.842 10.236-15.171 4.382-4.328 9.579-7.741 15.29-10.042 5.71-2.301 11.821-3.443 17.976-3.36v.847c-6.044-.082-12.043 1.039-17.651 3.297-5.607 2.259-10.71 5.61-15.013 9.859-4.303 4.25-7.719 9.313-10.051 14.896-2.332 5.582-3.533 11.573-3.533 17.624 0 6.052 1.201 12.042 3.533 17.625s5.748 10.646 10.051 14.895c4.303 4.25 9.406 7.601 15.013 9.86 5.608 2.258 11.607 3.379 17.651 3.296z" fill="#5468ff"/><path d="m329.068 144.462h-3.977v3.981h3.977z" fill="#5468ff"/><path d="m329.068 236.661h-3.977v3.981h3.977z" fill="#5468ff"/><path d="m283.018 190.566h-3.976v3.981h3.976z" fill="#fff"/><path d="m283.451 194.971h-4.823v-4.828h4.823zm-3.977-.847h3.131v-3.134h-3.131z" fill="#5468ff"/><path d="m281.031 147.486c.57 0 1.032-.462 1.032-1.033s-.462-1.033-1.032-1.033-1.032.462-1.032 1.033.462 1.033 1.032 1.033z" fill="#5468ff"/><path d="m281.031 239.685c.57 0 1.032-.462 1.032-1.033s-.462-1.033-1.032-1.033-1.032.462-1.032 1.033.462 1.033 1.032 1.033z" fill="#5468ff"/><path d="m513.83 230.851h-122.918c-.674 0-1.319-.268-1.795-.744-.476-.477-.743-1.123-.743-1.797s.267-1.321.743-1.797c.476-.477 1.121-.744 1.795-.744h122.927c.673 0 1.319.267 1.795.744.476.476.743 1.123.743 1.797 0 .334-.066.665-.194.974s-.316.589-.552.826c-.237.236-.518.423-.827.55s-.64.192-.974.191z" fill="#fff"/><path d="m513.83 249.223h-122.918c-.674 0-1.319-.268-1.795-.744-.476-.477-.743-1.123-.743-1.797s.267-1.321.743-1.797c.476-.477 1.121-.744 1.795-.744h122.927c.673 0 1.319.267 1.795.744.476.476.743 1.123.743 1.797 0 .334-.066.665-.194.974s-.316.59-.552.826c-.237.236-.518.423-.827.55s-.64.192-.974.191z" fill="#fff"/><path d="m513.832 267.603h-76.557c-.673 0-1.319-.267-1.795-.744s-.743-1.123-.743-1.797.267-1.32.743-1.797c.476-.476 1.122-.744 1.795-.744h76.557c.673 0 1.318.268 1.794.744.476.477.744 1.123.744 1.797s-.268 1.32-.744 1.797-1.121.744-1.794.744z" fill="#fff"/><path d="m231.867 86.7543h-7.055v7.0643h7.055z" fill="#fff"/><path d="m244.364 86.7543h-4.619c-.673 0-1.218.5461-1.218 1.2198v4.6247c0 .6737.545 1.2198 1.218 1.2198h4.619c.673 0 1.219-.5461 1.219-1.2198v-4.6247c0-.6737-.546-1.2198-1.219-1.2198z" fill="#fff"/><path d="m257.122 86.7543h-2.707c-1.201 0-2.174.9747-2.174 2.1769v2.7105c0 1.2022.973 2.1769 2.174 2.1769h2.707c1.201 0 2.175-.9747 2.175-2.1769v-2.7105c0-1.2022-.974-2.1769-2.175-2.1769z" fill="#fff"/><path d="m288.611 183.129 5.694-20.599-9.518 11.375c.257.366.388.806.371 1.253-.017.446-.18.875-.464 1.22-.168.228-.381.419-.625.561-.245.142-.516.233-.797.267-.28.033-.565.009-.836-.072s-.523-.216-.739-.398c-.217-.182-.395-.406-.522-.659s-.201-.529-.217-.812c-.016-.282.025-.565.122-.831s.247-.51.441-.715c.289-.343.683-.581 1.12-.677.437-.097.894-.046 1.3.143l9.518-11.375-19.264 9.224 2.047 6.454-2.36.466-1.142 1.364 7.961 6.674 1.142-1.364.051-2.405z" fill="#000d44"/><path d="m383.543 482.3s6.48-25.615 16.717-14.688c0 0-5.795-15.365-17.394 1.694s-12.97 19.829-12.97 19.829l15.009-1.364z" fill="#fff"/><path d="m383.543 482.3s6.48-25.615 16.717-14.688c0 0-5.795-15.365-17.394 1.694s-12.97 19.829-12.97 19.829l15.009-1.364z" fill="#5468ff" opacity=".4"/><path d="m366.512 482.986c-5.137-12.52-8.799-25.596-10.914-38.964-3.384-21.861-20.465-40.301-30.016-43.029 0 0 7.504 0 12.961 30.739s21.836 51.914 21.836 51.914z" fill="#fff"/><path d="m366.512 482.986c-5.137-12.52-8.799-25.596-10.914-38.964-3.384-21.861-20.465-40.301-30.016-43.029 0 0 7.504 0 12.961 30.739s21.836 51.914 21.836 51.914z" fill="#5468ff" opacity=".4"/><path d="m363.129 484.959s-18.477-23.141-34.848-25.876c0 0 2.733 10.926 24.535 24.563l6.819.686z" fill="#fff"/><path d="m363.129 484.959s-18.477-23.141-34.848-25.876c0 0 2.733 10.926 24.535 24.563l6.819.686z" fill="#5468ff" opacity=".3"/><path d="m374.677 482.986s9.551-11.613 11.599-26.639c2.047-15.027 1.387-34.152 1.387-34.152s-10.237 28.002-13.646 43.715c-3.41 15.712-4.121 20.489-4.121 20.489z" fill="#fff"/><path d="m374.677 482.986s9.551-11.613 11.599-26.639c2.047-15.027 1.387-34.152 1.387-34.152s-10.237 28.002-13.646 43.715c-3.41 15.712-4.121 20.489-4.121 20.489z" fill="#5468ff" opacity=".3"/><path d="m374.677 467.959s2.732-40.301.685-68.99c0 0-9.552 15.712-12.284 44.401-2.733 28.689 2.732 40.302 2.732 40.302l6.058 2.227z" fill="#fff" opacity=".4"/><path d="m374.677 467.959s2.732-40.301.685-68.99c0 0-9.552 15.712-12.284 44.401-2.733 28.689 2.732 40.302 2.732 40.302l6.058 2.227z" fill="#5468ff" opacity=".5"/><path d="m395.828 482.308h-60.72l3.41 10.927h3.748l5.118 40.979h35.474l5.118-40.979h4.442z" fill="#5468ff"/><path d="m261.53 194.276s5.136-7.2 5.432-14.848c.245-6.395 13.342-7.437 17.606-7.624.114-.006.228.021.327.08.098.058.177.145.226.249.05.104.067.22.049.333-.017.114-.068.22-.146.304l-2.352 2.677 3.731-.517c.123-.021.249-.003.36.051.112.054.205.141.265.25s.085.233.072.357c-.013.123-.065.24-.147.333l-2.809 3.388 1.405.161c.125.015.244.059.349.129.104.07.19.164.25.275.061.11.094.233.097.359s-.024.25-.079.364c-1.201 2.448-4.467 8.775-7.741 11.934-4.128 3.947-10.896 9.978-10.896 9.978z" fill="#f5b58f"/><path d="m113.763 492.532-13.536 20.024 11.844 10.808 15.863 6.488s-14.002-12.367-11.844-18.796l6.328-9.868z" fill="#f5b58f"/><path d="m105.362 504.602s-3.604 1.406-6.6157 8.97c-.1602.393-.2291.818-.2012 1.242.0278.424.1516.837.362 1.206.7783 1.338 2.7069 3.549 7.4449 6.454 6.142 3.769 11.963 7.623 14.459 9.275.946.63 1.985 1.108 3.079 1.415 2.369.669 6.422 1.533 8.029.211l-7.868-7.826s-7.91-1.186-13.824-10.249-4.856-10.698-4.856-10.698" fill="#000d44"/><path d="m190.26 506.533v21.625l15.82 2.676 16.811-3.134s-18.452-2.829-20.102-9.41v-11.757z" fill="#f5b58f"/><path d="m190.261 518.671s-2.276 3.134-.727 11.121c.077.418.248.813.5 1.155s.579.622.955.819c1.379.703 4.23 1.525 9.746 1.406 7.208-.152 14.179-.068 17.166 0 1.146.022 2.288-.138 3.384-.474 2.36-.72 6.235-2.186 6.87-4.168l-10.846-2.329s-7.301 3.278-17.166-1.143c-9.865-4.422-9.865-6.379-9.865-6.379" fill="#000d44"/><path d="m187.385 141.176s2.876 17.076-13.537 22.633c0 0-5.414 10.028 2.64 22.226 2.85 4.228 5.479 8.602 7.877 13.103l3.24 6.226-35.948-5.929.846-39.912 30.618-18.313z" fill="#efab89"/><path d="m162.316 192.396s36.379-17.898 32.673-40.937l-7.614-17.695-26.92 14.815z" fill="#f5b58f"/><path d="m255.945 196.326 2.86-5.751c.101-.204.249-.38.432-.515s.395-.224.619-.261c.224-.036.453-.018.669.052s.412.19.573.351l10.905 11.011c.214.222.35.506.39.811s-.02.615-.17.883l-5.245 8.996c-.127.214-.307.392-.523.515s-.46.188-.708.188c-.249 0-.493-.065-.709-.188s-.396-.301-.522-.515l-8.528-14.222c-.119-.205-.185-.436-.192-.672-.007-.237.044-.471.149-.683z" fill="#5468ff"/><path d="m255.945 196.326 2.86-5.751c.101-.204.249-.38.432-.515s.395-.224.619-.261c.224-.036.453-.018.669.052s.412.19.573.351l10.905 11.011c.214.222.35.506.39.811s-.02.615-.17.883l-5.245 8.996c-.127.214-.307.392-.523.515s-.46.188-.708.188c-.249 0-.493-.065-.709-.188s-.396-.301-.522-.515l-8.528-14.222c-.119-.205-.185-.436-.192-.672-.007-.237.044-.471.149-.683z" fill="#000d44" opacity=".07"/><path d="m138.086 350.798 55.559 27.952c-19.112 61.715-70.55 128.749-70.55 128.749l-4.366-4.557-9.813-10.249s11.742-17.788 27.157-62.875c13.164-38.489 6.616-69.135 3.02-76.953" fill="#1b255e"/><path d="m148.653 307.507 50.254 8.157 8.612 30.383c9.865 39.497 6.168 82.704 6.168 82.704-7.394 56.75-6.768 80.23-6.768 80.23h-21.557l-1.887-58.013c1.422-40.31-13.172-55.472-20.008-60.342-3.604-2.541-6.858-5.545-9.679-8.936-13.333-16.17-17.267-31.34-17.614-43.317-.203-7.839 2.062-15.543 6.472-22.023z" fill="#1b255e"/><path d="m208.51 331.647c.086-.356.145-.719.177-1.084 2.452-23.325 3.043-46.808 1.769-70.227-.052-.613.1-1.227.431-1.745 1.074-1.567 3.164-.703 4.738 0 2.801 1.291 5.849 1.96 8.934 1.96 3.084 0 6.132-.669 8.934-1.96 5.076-2.355 8.934-6.581 12.546-10.817 9.307-10.952 16.836-23.606 24.273-35.931.509-.676.804-1.491.846-2.337-.211-1.066-.815-2.013-1.692-2.652-4.645-4.404-7.411-6.911-12.056-11.316-.702-.669-1.548-1.38-2.538-1.27-1.125.127-1.785 1.287-2.268 2.312-2.8 5.929-6.539 10.927-9.306 16.856-2.267 4.811-4.602 9.715-8.976 13.036-1.785 1.399-3.906 2.304-6.151 2.625-8.071 1.008-13.155-6.361-18.003-12.214-6.961-8.387-15.834-14.975-25.872-19.21-3.578-1.508-7.36-2.745-10.27-5.362-.456-.46-1.051-.758-1.692-.847-1.853-.178-2.352 1.635-2.538 3.1l-2.471 16.094c-.079 1.737-.567 3.431-1.426 4.944-.859 1.512-2.063 2.798-3.515 3.755l-7.123 6.124c-.671.692-1.52 1.184-2.454 1.423-2.47.381-3.951-2.541-4.805-4.922-.575-1.584-2.496-4.938-4.704-4.235-1.971.652-1.65 5.387-1.87 7.09-.846 6.505-1.692 12.999-2.538 19.482-1.692 12.987-3.341 25.998-4.949 39.031-1.94 15.483-3.852 30.973-5.736 46.468-.186 1.507-.305 3.294 2.538 3.608 24.313-6.454 49.859-6.661 74.273-.602.905.229 1.962.441 2.707-.127.364-.26.639-.627.787-1.05z" fill="#5468ff"/><path d="m192.113 150.061c.168.464.449.879.818 1.207.368.329.812.56 1.291.675.48.114.981.107 1.457-.02.476-.128.914-.371 1.273-.71 1.688-1.672 2.929-3.742 3.607-6.02.679-2.278.774-4.691.276-7.015-1.446-6.141-7.25-10.868-13.536-11.444-1.307-.029-2.609-.171-3.892-.423-1.139-.378-2.236-.871-3.274-1.474-4.297-2.188-9.07-3.27-13.889-3.15s-9.532 1.439-13.715 3.839c-4.183 2.399-7.703 5.803-10.244 9.904-2.54 4.102-4.021 8.772-4.309 13.589 0-.059-8.334 3.041-9.112 3.473-3.14 1.731-5.994 3.936-8.46 6.539-5.166 5.564-8.245 12.748-8.714 20.329-.254 5.125.913 10.164 1.294 15.323.381 5.158-.161 10.638-3.384 14.662-1.041 1.321-2.335 2.422-3.384 3.769-1.156 1.649-1.954 3.523-2.342 5.5-.387 1.977-.356 4.013.092 5.977.968 3.918 2.909 7.528 5.642 10.495 4.476 5.243 10.737 9.241 17.606 9.783 5.076.398 10.812-4.049 14.696-8.902 1.212-1.498 2.833-2.61 4.667-3.199 1.833-.59 3.798-.632 5.654-.121 5.381 1.44 10.491 2.143 14.061-2.093 3.333-3.955 4.374-9.402 4.349-14.577-.13-2.41-.105-4.827.076-7.234.372-2.99 1.531-5.81 2.335-8.707 1.659-6.208 1.755-12.732.279-18.986-1.477-6.254-4.479-12.044-8.739-16.852 5.362-1.379 10.201-4.308 13.912-8.421 3.712-4.114 6.132-9.23 6.959-14.711 3.009 2.321 5.312 5.436 6.65 8.995z" fill="#000d44"/><g fill="#fff" opacity=".2"><circle cx="424" cy="396.695" r="3"/><circle cx="443" cy="396.695" r="3"/><circle cx="462" cy="396.695" r="3"/><circle cx="481" cy="396.695" r="3"/><circle cx="500" cy="396.695" r="3"/><circle cx="519" cy="396.695" r="3"/><circle cx="538" cy="396.695" r="3"/><circle cx="557" cy="396.695" r="3"/><circle cx="424" cy="415.695" r="3"/><circle cx="443" cy="415.695" r="3"/><circle cx="462" cy="415.695" r="3"/><circle cx="481" cy="415.695" r="3"/><circle cx="500" cy="415.695" r="3"/><circle cx="519" cy="415.695" r="3"/><circle cx="538" cy="415.695" r="3"/><circle cx="557" cy="415.695" r="3"/><circle cx="424" cy="434.695" r="3"/><circle cx="443" cy="434.695" r="3"/><circle cx="462" cy="434.695" r="3"/><circle cx="481" cy="434.695" r="3"/><circle cx="500" cy="434.695" r="3"/><circle cx="519" cy="434.695" r="3"/><circle cx="538" cy="434.695" r="3"/><circle cx="557" cy="434.695" r="3"/><circle cx="424" cy="453.695" r="3"/><circle cx="443" cy="453.695" r="3"/><circle cx="462" cy="453.695" r="3"/><circle cx="481" cy="453.695" r="3"/><circle cx="500" cy="453.695" r="3"/><circle cx="519" cy="453.695" r="3"/><circle cx="538" cy="453.695" r="3"/><circle cx="557" cy="453.695" r="3"/><circle cx="424" cy="472.695" r="3"/><circle cx="443" cy="472.695" r="3"/><circle cx="462" cy="472.695" r="3"/><circle cx="481" cy="472.695" r="3"/><circle cx="500" cy="472.695" r="3"/><circle cx="519" cy="472.695" r="3"/><circle cx="538" cy="472.695" r="3"/><circle cx="557" cy="472.695" r="3"/></g></svg>