<svg fill="none" height="57" viewBox="0 0 49 57" width="49" xmlns="http://www.w3.org/2000/svg" xmlns:xlink="http://www.w3.org/1999/xlink"><linearGradient id="a"><stop offset="0" stop-color="#7f52f1"/><stop offset=".474784" stop-color="#5786f1"/><stop offset="1" stop-color="#1dd4f1"/></linearGradient><linearGradient id="b" gradientUnits="userSpaceOnUse" x1="38.3704" x2="-34.9209" xlink:href="#a" y1="-60.8433" y2="-36.5929"/><linearGradient id="c" gradientUnits="userSpaceOnUse" x1="14.9121" x2="18.042" xlink:href="#a" y1="31.802" y2="45.2105"/><linearGradient id="d" gradientUnits="userSpaceOnUse" x1="14.9121" x2="17.1205" xlink:href="#a" y1="24.6804" y2="36.0334"/><path d="m30.346 26.22h18.654v22.0541c-2.2479 2.3886-5.4612 4.6002-8.94 6.283-3.4253 1.6286-7.3056 2.4429-11.6407 2.4429-3.8535 0-7.4929-.6786-10.9182-2.0357-3.4253-1.4114-6.4492-3.3657-9.07165-5.8629-2.62249-2.5514-4.68303-5.5643-6.1816-9.0385-1.498565-3.4743-2.24785-7.3286-2.24785-11.5629s.749285-8.0886 2.24785-11.5629c1.49857-3.4742 3.55911-6.46 6.1816-8.9571 2.62245-2.55143 5.64635-4.50571 9.07165-5.86286 3.4253-1.411426 7.0647-2.11714 10.9182-2.11714 3.3718 0 6.2886.488571 8.7506 1.46571 2.4619.92286 4.6027 2.19858 6.4224 3.82715v11.40004c-1.2845-.9772-2.6225-1.9272-4.014-2.85-1.3915-.9229-2.9704-1.6829-4.7366-2.28-1.7126-.5972-3.7464-.8958-6.1013-.8958-3.2112 0-6.1281.7872-8.7506 2.3615s-4.7097 3.6914-6.2618 6.3514-2.3282 5.7-2.3282 9.12c0 3.3657.7761 6.4057 2.3282 9.12 1.5521 2.66 3.6393 4.7771 6.2618 6.3514 2.6225 1.52 5.5394 2.28 8.7506 2.28 2.462 0 4.4422-.2985 5.9408-.8957 1.4985-.5971 2.676-1.2486 3.5323-1.9543l.0803-9.0385h-7.9478z" fill="url(#b)"/><path d="m24.3378 39.102v-10.0059h24.6622v10.0059z" fill="url(#c)"/><path d="m24.3378 30.7637v-8.3383h24.6622v8.3383z" fill="url(#d)"/></svg>