<svg fill="none" height="534" viewBox="0 0 559 534" width="559" xmlns="http://www.w3.org/2000/svg" xmlns:xlink="http://www.w3.org/1999/xlink"><linearGradient id="a" gradientUnits="userSpaceOnUse" x1="382.067" x2="7.92836" y1="-.000005" y2="348.159"><stop offset="0" stop-color="#7f52f1"/><stop offset=".474784" stop-color="#5786f1"/><stop offset="1" stop-color="#1dd4f1"/></linearGradient><clipPath id="b"><path d="m0 35.0446h558.014v498.911h-558.014z"/></clipPath><path d="m525 265c0 146.355-118.645 265-265 265-132.17 0-227.0612-71.886-244.2137-193.612-3.1595-22.423 15.7715-40.298 38.1038-44.04 189.3759-31.73 68.6639-292.348 206.1099-292.348 146.355 0 265 118.645 265 265z" fill="url(#a)" opacity=".3"/><g clip-path="url(#b)"><path d="m558.014 48.4639v361.9981c0 7.413-6.006 13.42-13.419 13.42h-531.1756c-7.41263 0-13.4194-6.007-13.4194-13.42v-361.9981c0-7.4126 6.00677-13.4193 13.4194-13.4193h531.1756c7.413 0 13.419 6.0067 13.419 13.4193z" fill="#22242c"/><path d="m39.8105 48.7469v364.3101h466.0075v-364.3101z" fill="#fff"/><path d="m529.967 214.539c8.238 0 14.918 6.681 14.918 14.918 0 8.238-6.68 14.918-14.918 14.918-8.237 0-14.918-6.68-14.918-14.918 0-8.237 6.681-14.918 14.918-14.918z" fill="#455a64"/><path d="m22.2378 172.317v114.292c0 .778-.6274 1.417-1.4175 1.417h-3.3345c-.7784 0-1.4174-.627-1.4174-1.417v-114.292c0-.778.6274-1.417 1.4174-1.417h3.3345c.7785.012 1.4175.639 1.4175 1.417z" fill="#32343f"/><path d="m83.4555 47.488h-43.6508v365.565h43.6508z" fill="#4c5fec"/><path d="m67.9445 134.673c-.0814 0-.1627-.034-.2324-.093l-6.2624-5.681-6.2624 5.681c-.1394.128-.3601.117-.4879-.023-.1278-.139-.1162-.36.0232-.499l6.4948-5.903c.1278-.116.3369-.116.4647 0l6.4947 5.903c.1395.127.1511.348.0233.499-.0581.07-.1511.116-.2556.116z" fill="#fff"/><path d="m66.1667 139.646h-9.4226c-.1976 0-.3486-.151-.3486-.348v-6.577c0-.197.151-.348.3486-.348.1975 0 .3485.151.3485.348v6.228h8.7255v-6.228c0-.197.1511-.348.3486-.348s.3485.151.3485.348v6.577c0 .197-.151.348-.3485.348z" fill="#fff"/><path d="m67.5961 181.496h-12.2807c-.1976 0-.3486-.151-.3486-.349v-7.865c0-.976.7901-1.766 1.766-1.766h3.1951c.8017 0 1.522.476 1.8357 1.22l.5461 1.313h3.8806c.9759 0 1.766.79 1.766 1.766v5.321c-.0116.209-.1627.36-.3602.36zm-11.9322-.697h11.5837v-4.973c0-.592-.4764-1.069-1.0689-1.069h-4.113c-.1394 0-.2672-.081-.3253-.209l-.639-1.534c-.1975-.476-.6623-.79-1.1851-.79h-3.1951c-.5926 0-1.0689.477-1.0689 1.069v7.506z" fill="#fff"/><path d="m85.3609 242.9h-42.8026c-1.522 0-2.7536-1.232-2.7536-2.754v-30.847c0-1.522 1.2316-2.753 2.7536-2.753h42.791v36.354z" fill="#fff"/><path d="m69.4327 277.082h-13.7912c-.1975 0-.3485-.162-.3485-.348v-8.726c0-.197.151-.348.3485-.348h13.8028c.1975 0 .3486.162.3486.348v8.726c-.0116.197-.1627.348-.3602.348zm-13.4426-.697h13.1057v-8.028h-13.1057z" fill="#fff"/><path d="m62.7053 274.63c-.0813 0-.1627-.023-.2324-.093l-7.064-6.274c-.1395-.128-.1627-.348-.0349-.5.1278-.139.3486-.162.488-.034l6.8317 6.065 6.4947-6.065c.1394-.128.3602-.128.488.023.1278.139.1278.36-.0232.499l-6.7272 6.274c-.0464.07-.1394.105-.2207.105z" fill="#fff"/><path d="m55.8388 276.698c-.093 0-.1743-.035-.244-.104-.1394-.14-.1394-.361 0-.5l4.1943-4.218c.1394-.139.3602-.139.488 0 .1394.14.1394.361 0 .5l-4.1943 4.218c-.0697.081-.1511.104-.244.104z" fill="#fff"/><path d="m69.5257 276.989c-.093 0-.1743-.035-.244-.105l-4.4848-4.508c-.1394-.139-.1394-.36 0-.5.1395-.139.3602-.139.488 0l4.4848 4.508c.1394.14.1394.361 0 .5-.0581.081-.1511.105-.244.105z" fill="#fff"/><path d="m56.8843 230.491h-2.8117c-.4183 0-.7552-.337-.7552-.755v-5.182c0-.418.3369-.755.7552-.755h2.8117c.4182 0 .7552.337.7552.755v5.182c0 .418-.337.755-.7552.755z" fill="#4c5fec"/><path d="m62.9487 230.491h-2.8117c-.4182 0-.7552-.337-.7552-.755v-7.784c0-.419.337-.756.7552-.756h2.8117c.4183 0 .7552.337.7552.756v7.784c0 .418-.3369.755-.7552.755z" fill="#4c5fec"/><path d="m68.8393 230.491h-2.8116c-.4183 0-.7552-.337-.7552-.755v-10.027c0-.418.3369-.755.7552-.755h2.8116c.4183 0 .7553.337.7553.755v10.027c0 .418-.337.755-.7553.755z" fill="#4c5fec"/><path d="m61.6364 100.085c-4.3918 0-7.9587-3.5785-7.9587-7.9819 0-4.4151 3.5669-7.9819 7.9587-7.9819s7.9587 3.5785 7.9587 7.9819-3.5669 7.9819-7.9587 7.9819z" fill="#fff"/><path d="m301.988 210.473h-12.06v27.779h12.06z" fill="#ebebeb"/><path d="m342.897 210.473h-12.06v27.779h12.06z" fill="#ebebeb"/><path d="m322.448 185.179h-12.06v53.073h12.06z" fill="#f5f5f5"/><path d="m363.357 185.179h-12.06v53.073h12.06z" fill="#f5f5f5"/><path d="m383.805 186.701h-12.06v51.551h12.06z" fill="#ebebeb"/><path d="m424.714 186.701h-12.06v51.551h12.06z" fill="#ebebeb"/><path d="m465.624 186.701h-12.061v51.551h12.061z" fill="#ebebeb"/><path d="m404.266 159.642h-12.06v78.61h12.06z" fill="#f5f5f5"/><path d="m445.163 167.333h-12.06v70.919h12.06z" fill="#f5f5f5"/><path d="m486.072 178.196h-12.06v60.056h12.06z" fill="#ebebeb"/><path d="m487.745 183.564s-.105-.186-.302-.558c-.198-.36-.488-.917-.883-1.626-.802-1.418-2.01-3.497-3.788-6.042-.883-1.266-1.929-2.637-3.149-4.066-1.219-1.441-2.625-2.928-4.263-4.38-1.639-1.453-3.509-2.905-5.67-4.148-.546-.314-1.092-.616-1.673-.895-.57-.302-1.174-.546-1.766-.802-1.22-.476-2.498-.917-3.846-1.196-1.348-.291-2.754-.465-4.194-.488-1.441-.012-2.917.139-4.392.453-1.464.325-2.94.802-4.346 1.475-1.405.674-2.776 1.511-4.229 2.254-2.881 1.522-5.96 2.952-9.318 3.893-3.357.941-6.959 1.301-10.619 1.208-.453 0-.918-.035-1.383-.058-.464-.023-.918-.035-1.382-.105-.233-.035-.465-.046-.697-.093l-.686-.139c-.465-.081-.906-.232-1.359-.36-1.801-.546-3.544-1.336-5.263-2.173-1.708-.86-3.44-1.731-5.194-2.602-1.754-.849-3.555-1.662-5.472-2.185-3.846-.964-7.901-1.626-11.991-1.196-2.033.209-4.054.743-5.925 1.615-1.871.894-3.578 2.137-5.089 3.601-3.044 2.928-5.333 6.46-7.61 9.876-2.266 3.427-4.462 6.855-6.808 10.073-2.359 3.219-4.857 6.263-7.68 8.877-1.406 1.301-2.905 2.498-4.45 3.555-1.557 1.046-3.195 1.952-4.857 2.719-1.661.778-3.392 1.359-5.135 1.777-.872.233-1.755.349-2.626.5-.883.081-1.754.186-2.626.163-3.497.069-6.855-.883-9.759-2.336-2.94-1.429-5.589-3.148-8.296-4.473-2.695-1.348-5.495-2.207-8.237-2.544-5.496-.709-10.573.453-14.489 2.393-3.927 1.987-6.727 4.682-8.609 7.111-1.894 2.451-2.94 4.647-3.544 6.146-.139.383-.267.72-.383 1.011-.105.29-.174.546-.244.743-.128.395-.198.604-.198.604s.059-.209.175-.604c.058-.197.128-.453.232-.743.105-.291.232-.628.372-1.011.592-1.51 1.626-3.718 3.509-6.193 1.882-2.451 4.682-5.158 8.621-7.168 3.927-1.964 9.039-3.149 14.569-2.452 2.754.325 5.589 1.197 8.296 2.545 2.719 1.324 5.368 3.044 8.295 4.461 2.905 1.441 6.216 2.37 9.679 2.301.859.011 1.731-.093 2.602-.163.86-.14 1.743-.267 2.603-.488 1.719-.418 3.439-.999 5.089-1.766 1.661-.767 3.276-1.662 4.821-2.707 1.546-1.058 3.021-2.231 4.427-3.532 2.812-2.603 5.298-5.635 7.645-8.842 2.347-3.218 4.531-6.634 6.797-10.073 2.277-3.416 4.566-6.96 7.633-9.911 1.522-1.475 3.253-2.73 5.147-3.648 1.906-.883 3.951-1.429 6.007-1.638 4.125-.442 8.214.232 12.072 1.208 1.94.523 3.752 1.348 5.507 2.196 1.743.883 3.474 1.743 5.193 2.603 1.72.836 3.451 1.615 5.229 2.172.453.116.894.279 1.347.36l.674.14c.221.046.453.058.686.093.453.069.918.081 1.371.104.464.012.918.058 1.371.058 3.648.105 7.226-.255 10.561-1.185 3.334-.941 6.402-2.358 9.283-3.869 1.452-.743 2.812-1.568 4.241-2.254 1.429-.685 2.904-1.161 4.392-1.487 1.487-.313 2.974-.465 4.426-.453 1.453.023 2.87.209 4.229.5 1.36.29 2.649.732 3.881 1.22.604.267 1.208.511 1.778.813.581.279 1.127.592 1.673.906 2.172 1.255 4.031 2.707 5.681 4.171 1.638 1.476 3.056 2.963 4.264 4.415 1.22 1.441 2.266 2.812 3.137 4.09 1.766 2.544 2.963 4.636 3.753 6.065.395.709.674 1.266.86 1.638.209.36.302.546.302.546z" fill="#263238"/><path d="m400.257 158.538c0 1.708-1.383 3.102-3.102 3.102-1.708 0-3.102-1.383-3.102-3.102 0-1.72 1.382-3.102 3.102-3.102 1.708 0 3.102 1.382 3.102 3.102z" fill="#4c5fec"/><path d="m397.318 163.824c-3.103 0-5.635-2.521-5.635-5.635s2.521-5.635 5.635-5.635c3.113 0 5.635 2.521 5.635 5.635s-2.522 5.635-5.635 5.635zm0-10.805c-2.859 0-5.182 2.324-5.182 5.182s2.323 5.182 5.182 5.182c2.858 0 5.181-2.324 5.181-5.182 0-2.87-2.323-5.182-5.181-5.182z" fill="#4c5fec"/><path d="m398.643 147.837-.163-6.344 1.58.024-2.962-3.614-2.952 3.649 1.639.011.162 6.263z" fill="#ebebeb"/><path d="m392.647 151.241v1.162h-1.045v-1.138c-1.034-.058-2.022-.384-2.591-.837l.569-1.266c.523.383 1.266.662 2.022.743v-1.731c-1.151-.279-2.44-.662-2.44-2.149 0-1.104.801-2.045 2.44-2.243v-1.15h1.045v1.139c.779.058 1.546.267 2.115.639l-.523 1.278c-.534-.302-1.069-.477-1.592-.546v1.766c1.151.267 2.429.65 2.429 2.126 0 1.069-.79 2.01-2.429 2.207zm-1.034-4.601v-1.475c-.546.128-.767.43-.767.767 0 .372.314.569.767.708zm1.79 2.51c0-.36-.303-.558-.744-.72v1.44c.511-.116.744-.383.744-.72z" fill="#e0e0e0"/><path d="m299.397 197.774c0 1.708-1.383 3.102-3.102 3.102-1.72 0-3.103-1.383-3.103-3.102 0-1.708 1.383-3.103 3.103-3.103 1.719 0 3.102 1.395 3.102 3.103z" fill="#4c5fec"/><path d="m296.295 203.525c-3.102 0-5.635-2.521-5.635-5.635s2.521-5.635 5.635-5.635c3.102 0 5.635 2.521 5.635 5.635s-2.533 5.635-5.635 5.635zm0-10.817c-2.858 0-5.182 2.324-5.182 5.182s2.324 5.182 5.182 5.182 5.182-2.324 5.182-5.182c-.012-2.858-2.324-5.182-5.182-5.182z" fill="#4c5fec"/><path d="m294.749 179.742.163 6.343-1.58-.023 2.963 3.613 2.963-3.648-1.65-.011-.163-6.263z" fill="#ebebeb"/><path d="m291.101 191.279v1.162h-1.045v-1.139c-1.034-.058-2.022-.383-2.591-.836l.569-1.267c.523.384 1.267.662 2.022.744v-1.743c-1.15-.279-2.44-.662-2.44-2.149 0-1.104.802-2.045 2.44-2.243v-1.15h1.045v1.139c.779.058 1.546.267 2.115.639l-.523 1.278c-.534-.303-1.069-.477-1.592-.546v1.766c1.151.267 2.429.65 2.429 2.126-.012 1.092-.802 2.021-2.429 2.219zm-1.045-4.589v-1.476c-.546.128-.767.43-.767.767 0 .36.314.557.767.709zm1.789 2.498c0-.361-.302-.558-.744-.721v1.441c.523-.116.744-.384.744-.72z" fill="#e0e0e0"/><path d="m473.523 157.62v1.162h-1.045v-1.139c-1.034-.058-2.022-.383-2.591-.836l.569-1.267c.523.384 1.266.662 2.022.744v-1.743c-1.151-.279-2.44-.662-2.44-2.149 0-1.104.801-2.045 2.44-2.231v-1.15h1.045v1.138c.779.058 1.534.267 2.115.639l-.523 1.278c-.534-.302-1.069-.476-1.592-.546v1.766c1.151.267 2.429.651 2.429 2.126 0 1.081-.791 2.01-2.429 2.208zm-1.034-4.589v-1.476c-.546.128-.767.43-.767.767 0 .36.314.558.767.709zm1.789 2.509c0-.36-.302-.557-.743-.72v1.441c.511-.128.743-.395.743-.721z" fill="#e0e0e0"/><path d="m479.983 158.573c.918-.384 1.569-1.336 1.581-2.452.011-1.464-1.104-2.649-2.475-2.66-1.371-.012-2.487 1.173-2.498 2.637 0 1.127.65 2.091 1.58 2.475-3.823.581-3.648 4.728-3.648 4.728l9.039.047s.209-4.206-3.579-4.775z" fill="#ebebeb"/><path d="m479.054 173.514c1.714 0 3.102-1.389 3.102-3.102s-1.388-3.102-3.102-3.102c-1.713 0-3.102 1.389-3.102 3.102s1.389 3.102 3.102 3.102z" fill="#4c5fec"/><path d="m479.054 176.163c-3.102 0-5.635-2.521-5.635-5.635s2.521-5.635 5.635-5.635c3.102 0 5.635 2.521 5.635 5.635s-2.533 5.635-5.635 5.635zm0-10.817c-2.858 0-5.182 2.324-5.182 5.182s2.324 5.182 5.182 5.182 5.182-2.324 5.182-5.182c-.012-2.858-2.336-5.182-5.182-5.182z" fill="#4c5fec"/><path d="m158.592 213.69c-1.22.709-2.533 1.255-3.915 1.627-1.348.372-2.754.558-4.206.558-1.464 0-2.87-.198-4.206-.558-1.383-.372-2.696-.918-3.915-1.627-1.232-.72-2.371-1.58-3.358-2.579-.999-.999-1.859-2.138-2.58-3.358-.708-1.22-1.254-2.532-1.626-3.915-.36-1.348-.546-2.754-.546-4.206s.197-2.858.546-4.206c.372-1.382.918-2.695 1.626-3.915.721-1.232 1.581-2.37 2.58-3.358.999-.999 2.138-1.859 3.358-2.579 1.219-.709 2.532-1.255 3.915-1.627 1.348-.372 2.754-.558 4.206-.558v-3.195c-1.743 0-3.428.233-5.031.663-1.661.441-3.241 1.103-4.694 1.94-1.464.86-2.835 1.894-4.031 3.09-1.197 1.197-2.231 2.545-3.079 4.032-.848 1.464-1.511 3.021-1.952 4.682-.43 1.615-.663 3.288-.663 5.031s.233 3.428.663 5.031c.441 1.661 1.104 3.23 1.952 4.694.848 1.475 1.882 2.835 3.079 4.031 1.196 1.197 2.556 2.231 4.031 3.079 1.464.848 3.033 1.511 4.694 1.952 1.603.43 3.288.662 5.031.662s3.416-.232 5.031-.662c1.661-.441 3.23-1.104 4.682-1.952 1.464-.836 2.8-1.859 3.985-3.055l-2.265-2.266c-.976.988-2.103 1.836-3.312 2.544z" fill="#4c5fec"/><path d="m169.246 194.59c-.441-1.661-1.104-3.23-1.94-4.682-.86-1.476-1.894-2.835-3.091-4.032-1.196-1.197-2.544-2.231-4.031-3.09-1.464-.837-3.021-1.499-4.682-1.941-1.615-.43-3.3-.662-5.031-.662v3.195c1.452 0 2.858.198 4.206.558 1.382.372 2.695.918 3.915 1.626 1.232.721 2.37 1.581 3.358 2.58.999.999 1.859 2.126 2.579 3.358.709 1.219 1.255 2.532 1.627 3.915.36 1.348.546 2.754.546 4.206 0 1.464-.198 2.87-.546 4.206-.372 1.382-.93 2.695-1.627 3.915-.72 1.232-1.568 2.37-2.579 3.358-.012.012-.035.023-.035.023l2.266 2.266c.011 0 .023-.023.034-.023 1.197-1.197 2.231-2.545 3.091-4.032.836-1.464 1.499-3.032 1.94-4.694.43-1.603.662-3.288.662-5.031 0-1.719-.232-3.404-.662-5.019z" fill="#e0e0e0"/><path d="m153.747 200.945c-.232 0-.453-.162-.511-.406l-1.173-4.915h-3.254l-1.127 4.682c-.069.279-.348.453-.627.384-.279-.07-.453-.349-.383-.628l1.115-4.647c.035-.465.395-.837.848-.837h3.614c.441 0 .813.372.848.837l1.162 4.868c.069.279-.105.558-.384.628-.046.023-.081.034-.128.034z" fill="#4c5fec"/><path d="m152.027 194.648h-3.172v5.775h3.172z" fill="#4c5fec"/><path d="m149.495 207.278c-.349 0-.628-.279-.628-.628v-6.82c0-.349.279-.627.628-.627.348 0 .627.278.627.627v6.82c0 .349-.279.628-.627.628z" fill="#4c5fec"/><path d="m151.389 207.278c-.348 0-.627-.279-.627-.628v-6.82c0-.349.279-.627.627-.627.349 0 .628.278.628.627v6.82c0 .349-.279.628-.628.628z" fill="#4c5fec"/><path d="m150.448 194.253c.847 0 1.533-.686 1.533-1.534 0-.847-.686-1.533-1.533-1.533s-1.534.686-1.534 1.533c0 .848.687 1.534 1.534 1.534z" fill="#4c5fec"/><path d="m147.706 202.142 1.208-4.612h3.056l1.174 4.612z" fill="#4c5fec"/><path d="m245.313 197.773c0 1.743-.232 3.428-.662 5.031-.441 1.661-1.104 3.23-1.952 4.682-.848 1.476-1.882 2.835-3.09 4.032-1.197 1.196-2.556 2.242-4.032 3.09-1.452.848-3.021 1.511-4.682 1.952-1.604.418-3.288.662-5.031.662s-3.428-.232-5.031-.662c-1.661-.441-3.23-1.104-4.682-1.952-1.476-.848-2.835-1.882-4.032-3.09-1.197-1.197-2.242-2.556-3.09-4.032-.849-1.452-1.511-3.021-1.952-4.682-.314-1.185-.523-2.417-.616-3.683h3.218c.082.976.244 1.928.488 2.846.372 1.395.918 2.707 1.627 3.916.72 1.231 1.58 2.358 2.591 3.358.999 1.01 2.126 1.87 3.358 2.59 1.208.698 2.521 1.255 3.915 1.627 1.348.36 2.742.546 4.194.546 1.464 0 2.858-.186 4.206-.546 1.394-.372 2.707-.918 3.916-1.627 1.231-.72 2.358-1.58 3.357-2.59 1.011-1 1.871-2.127 2.591-3.358.697-1.209 1.255-2.521 1.627-3.916.36-1.347.546-2.742.546-4.194 0-1.464-.186-2.858-.546-4.206-.372-1.394-.918-2.707-1.627-3.915-.72-1.232-1.58-2.359-2.591-3.358-.999-1.011-2.126-1.871-3.357-2.591-1.209-.697-2.522-1.255-3.916-1.627-1.348-.36-2.742-.546-4.206-.546v-3.206c1.755 0 3.439.232 5.031.662 1.662.441 3.23 1.104 4.682 1.952 1.476.848 2.835 1.882 4.032 3.09 1.197 1.197 2.242 2.556 3.091 4.032.848 1.452 1.51 3.021 1.951 4.682.442 1.592.674 3.277.674 5.031z" fill="#e0e0e0"/><path d="m242.118 197.774c0 1.452-.186 2.846-.546 4.194-.372 1.394-.918 2.707-1.626 3.915-.721 1.232-1.581 2.359-2.591 3.358-1 1.011-2.127 1.871-3.358 2.591-1.209.697-2.521 1.255-3.916 1.627-1.347.36-2.742.546-4.206.546-1.452 0-2.846-.186-4.194-.546-1.394-.372-2.707-.918-3.915-1.627-1.232-.72-2.359-1.58-3.358-2.591-1.011-.999-1.871-2.126-2.591-3.358-.697-1.208-1.255-2.521-1.627-3.915-.243-.918-.406-1.871-.487-2.847-.035-.441-.059-.894-.059-1.347 0-1.453.198-2.859.558-4.206.372-1.383.918-2.696 1.627-3.916.708-1.231 1.58-2.358 2.579-3.369.999-.999 2.138-1.871 3.369-2.58 1.22-.697 2.533-1.254 3.916-1.626 1.336-.36 2.753-.558 4.206-.558v-3.207c-1.743 0-3.428.233-5.031.663-1.662.441-3.23 1.104-4.682 1.94-1.476.848-2.835 1.894-4.032 3.091-1.197 1.196-2.231 2.556-3.091 4.031-.836 1.453-1.498 3.021-1.94 4.682-.43 1.604-.662 3.289-.662 5.031 0 .453.023.907.046 1.348.093 1.266.303 2.486.616 3.683.442 1.662 1.104 3.23 1.952 4.682.848 1.476 1.882 2.835 3.091 4.032 1.196 1.197 2.556 2.242 4.031 3.091 1.453.848 3.021 1.51 4.683 1.951 1.603.419 3.288.663 5.03.663 1.755 0 3.439-.233 5.031-.663 1.662-.441 3.23-1.103 4.682-1.951 1.476-.849 2.835-1.883 4.032-3.091 1.197-1.197 2.242-2.556 3.091-4.032.848-1.452 1.51-3.02 1.951-4.682.419-1.603.663-3.288.663-5.031h-3.242z" fill="#455a64"/><path d="m229.013 199.795c-.314 0-.57-.256-.57-.569v-5.182h-4.182v5.182c0 .313-.256.569-.57.569-.313 0-.569-.256-.569-.569v-5.322c0-.546.43-.987.964-.987h4.497c.534 0 .964.441.964.987v5.322c.023.313-.221.569-.534.569z" fill="#455a64"/><path d="m228.072 192.975h-3.427v6.251h3.427z" fill="#455a64"/><path d="m225.329 205.43c-.372 0-.674-.256-.674-.581v-6.355c0-.325.302-.581.674-.581s.674.256.674.581v6.355c.012.325-.302.581-.674.581z" fill="#455a64"/><path d="m227.386 205.43c-.372 0-.674-.256-.674-.581v-6.355c0-.325.302-.581.674-.581s.674.256.674.581v6.355c0 .325-.302.581-.674.581z" fill="#455a64"/><path d="m228.014 190.907c0 .918-.744 1.65-1.65 1.65-.918 0-1.65-.744-1.65-1.65 0-.918.743-1.65 1.65-1.65.906-.012 1.65.732 1.65 1.65z" fill="#455a64"/><path d="m167.214 153.275c0 .162-9.69.302-21.634.302s-21.634-.14-21.634-.302c0-.163 9.679-.302 21.634-.302 11.944 0 21.634.139 21.634.302z" fill="#263238"/><path d="m160.278 164.091c0 .163-7.947.303-17.753.303s-17.754-.14-17.754-.303c0-.162 7.948-.302 17.754-.302s17.753.14 17.753.302z" fill="#e0e0e0"/><path d="m245.314 152.148c0 .627-.5 1.127-1.127 1.127-.628 0-1.127-.5-1.127-1.127 0-.628.499-1.127 1.127-1.127.627 0 1.127.511 1.127 1.127z" fill="#263238"/><path d="m248.462 153.275c.622 0 1.127-.505 1.127-1.127 0-.623-.505-1.127-1.127-1.127s-1.127.504-1.127 1.127c0 .622.505 1.127 1.127 1.127z" fill="#263238"/><path d="m253.864 152.148c0 .627-.499 1.127-1.127 1.127-.627 0-1.127-.5-1.127-1.127 0-.628.5-1.127 1.127-1.127.628 0 1.127.511 1.127 1.127z" fill="#263238"/><path d="m142.664 230.352c0 1.139-.918 2.056-2.057 2.056-1.138 0-2.056-.917-2.056-2.056s.918-2.057 2.056-2.057c1.127-.011 2.057.918 2.057 2.057z" fill="#4c5fec"/><path d="m161.858 230.143c0 .162-3.718.302-8.308.302-4.589 0-8.307-.14-8.307-.302 0-.163 3.718-.302 8.307-.302 4.59 0 8.308.127 8.308.302z" fill="#263238"/><path d="m216.267 230.898c0 1.139-.918 2.056-2.056 2.056-1.139 0-2.057-.917-2.057-2.056s.918-2.057 2.057-2.057c1.138 0 2.056.93 2.056 2.057z" fill="#455a64"/><path d="m235.461 230.689c0 .162-3.718.302-8.307.302s-8.307-.14-8.307-.302c0-.163 3.718-.302 8.307-.302s8.307.139 8.307.302z" fill="#263238"/><path d="m141.92 244.307c0 1.057-.756 1.905-2.312 1.905-.86 0-1.72-.279-2.243-.743l.407-.686c.407.384 1.092.651 1.836.651.929 0 1.452-.43 1.452-1.092 0-.686-.442-1.116-1.847-1.116h-1.395l.326-3.195h3.45v.755h-2.718l-.163 1.673h.685c1.801 0 2.522.756 2.522 1.848z" fill="#000"/><path d="m142.64 243.074c0-1.998 1.069-3.125 2.498-3.125s2.486 1.138 2.486 3.125-1.069 3.126-2.486 3.126c-1.429.011-2.498-1.127-2.498-3.126zm4.113 0c0-1.568-.663-2.347-1.615-2.347-.965 0-1.627.79-1.627 2.347 0 1.569.662 2.347 1.627 2.347.952.012 1.615-.778 1.615-2.347z" fill="#000"/><path d="m148.368 241.634c0-1 .581-1.674 1.429-1.674s1.418.663 1.418 1.674c0 1.01-.57 1.673-1.418 1.673-.86 0-1.429-.674-1.429-1.673zm2.277 0c0-.732-.325-1.174-.859-1.174-.523 0-.86.442-.86 1.174 0 .72.337 1.173.86 1.173.534 0 .859-.442.859-1.173zm2.835-1.615h.674l-4.182 6.122h-.674zm-1.231 4.496c0-.999.569-1.673 1.417-1.673s1.429.674 1.429 1.673-.581 1.673-1.429 1.673-1.417-.674-1.417-1.673zm2.265 0c0-.72-.337-1.174-.859-1.174-.535 0-.86.442-.86 1.174s.325 1.173.86 1.173c.534 0 .859-.441.859-1.173z" fill="#000"/><path d="m223.563 244.516c0 1.057-.755 1.905-2.312 1.905-.86 0-1.719-.279-2.242-.743l.406-.686c.407.383 1.093.651 1.836.651.93 0 1.452-.43 1.452-1.092 0-.686-.441-1.116-1.847-1.116h-1.394l.325-3.195h3.451v.755h-2.719l-.162 1.673h.685c1.801 0 2.521.767 2.521 1.848z" fill="#000"/><path d="m224.283 243.295c0-1.998 1.069-3.125 2.498-3.125s2.487 1.138 2.487 3.125-1.069 3.125-2.487 3.125c-1.429 0-2.498-1.138-2.498-3.125zm4.113 0c0-1.569-.662-2.347-1.615-2.347-.964 0-1.626.79-1.626 2.347 0 1.568.662 2.347 1.626 2.347.953 0 1.615-.79 1.615-2.347z" fill="#000"/><path d="m230.012 241.843c0-1 .581-1.673 1.429-1.673s1.417.662 1.417 1.673c0 1.01-.569 1.673-1.417 1.673s-1.429-.674-1.429-1.673zm2.277 0c0-.732-.325-1.174-.86-1.174-.523 0-.86.442-.86 1.174 0 .72.337 1.173.86 1.173.535 0 .86-.43.86-1.173zm2.835-1.615h.674l-4.183 6.123h-.674zm-1.232 4.508c0-1 .57-1.673 1.418-1.673s1.429.673 1.429 1.673c0 .999-.581 1.673-1.429 1.673-.848-.012-1.418-.686-1.418-1.673zm2.266 0c0-.721-.337-1.174-.86-1.174-.534 0-.86.442-.86 1.174s.326 1.173.86 1.173c.535-.012.86-.453.86-1.173z" fill="#000"/><path d="m357.99 117.164c-6.077 0-8.795-4.961-11.421-9.759-2.173-3.962-4.404-8.0519-8.075-8.0519-4.101 0-6.111 1.6029-8.447 3.4509-2.532 2.01-5.414 4.299-11.06 4.299-6.193 0-8.761-6.019-11.48-12.3857-2.091-4.9031-4.461-10.4567-8.016-10.4567-3.556 0-5.926 5.5536-8.017 10.4567-2.719 6.3667-5.287 12.3857-11.479 12.3857-5.833 0-8.702-3.195-11.247-6.019-2.324-2.5907-4.334-4.8215-8.261-4.8215v-.6041c4.171 0 6.263 2.3237 8.679 5.0076 2.463 2.73 5.24 5.832 10.817 5.832 5.809 0 8.307-5.844 10.945-12.0247 2.161-5.0657 4.612-10.8169 8.551-10.8169s6.39 5.7396 8.551 10.8169c2.638 6.1927 5.136 12.0247 10.945 12.0247 5.449 0 8.237-2.219 10.701-4.171 2.416-1.917 4.496-3.5665 8.795-3.5665 4.008 0 6.332 4.2405 8.574 8.3535 2.545 4.648 5.182 9.458 10.922 9.458 5.728 0 8.365-4.508 10.909-8.865 2.347-4.009 4.567-7.7846 8.587-7.7846 4.159 0 6.25 2.4046 8.667 5.1936 2.463 2.835 5.24 6.041 10.84 6.041 5.833 0 8.319-6.227 10.956-12.8148 2.173-5.4258 4.624-11.572 8.552-11.572 3.973 0 6.308 4.7287 8.562 9.2948 2.545 5.135 5.159 10.457 10.945 10.457 5.577 0 8.365-3.102 10.829-5.833 2.416-2.6837 4.508-5.0074 8.679-5.0074v.6042c-3.928 0-5.938 2.2307-8.261 4.8212-2.545 2.824-5.414 6.019-11.247 6.019-6.135 0-8.842-5.484-11.456-10.7821-2.184-4.4151-4.426-8.9695-8.051-8.9695-3.532 0-5.914 5.9486-8.017 11.2002-2.707 6.7854-5.275 13.1874-11.491 13.1874-5.844 0-8.725-3.312-11.258-6.24-2.324-2.683-4.334-4.995-8.238-4.995-3.694 0-5.832 3.648-8.086 7.505-2.626 4.485-5.345 9.132-11.398 9.132z" fill="#4c5fec"/><g fill="#e0e0e0"><path d="m261.219 125.483.151-.174c.128.197.313.314.523.314.302 0 .453-.186.453-.558v-1.522h-.883v-.233h1.138v1.743c0 .535-.244.79-.708.79-.268 0-.523-.128-.674-.36z"/><path d="m264.693 124.647v1.173h-.232v-.29c-.117.197-.326.313-.628.313-.418 0-.662-.221-.662-.546 0-.29.186-.534.709-.534h.581v-.116c0-.326-.175-.5-.512-.5-.232 0-.453.081-.604.221l-.116-.186c.186-.163.453-.256.744-.256.453-.011.72.233.72.721zm-.244.604v-.314h-.569c-.349 0-.465.139-.465.337 0 .221.174.36.465.36.267 0 .476-.139.569-.383z"/><path d="m267.051 124.728v1.092h-.244v-1.069c0-.395-.198-.604-.546-.604-.395 0-.639.256-.639.685v.988h-.244v-1.894h.232v.349c.128-.233.384-.36.697-.36.43 0 .744.267.744.813z"/><path d="m287.721 123.532v.987h1.255v.233h-1.255v1.069h-.255v-2.51h1.661v.232h-1.406z"/><path d="m291.137 124.949h-1.522c.023.395.314.662.72.662.221 0 .419-.081.558-.244l.14.163c-.163.197-.419.313-.709.313-.569 0-.953-.406-.953-.964s.384-.964.895-.964.883.395.883.964c-.012.012-.012.046-.012.07zm-1.534-.186h1.29c-.035-.372-.29-.628-.651-.628-.336 0-.604.256-.639.628z"/><path d="m293.496 124.867c0 .57-.384.965-.906.965-.303 0-.558-.14-.709-.395v.371h-.233v-2.66h.244v1.138c.151-.244.407-.371.698-.371.511 0 .906.383.906.952zm-.256 0c0-.441-.29-.732-.674-.732-.383 0-.685.291-.685.732 0 .442.29.732.685.732.384.012.674-.279.674-.732z"/><path d="m317.057 123.299v2.509h-.244v-1.998l-.952 1.696h-.116l-.953-1.684v1.998h-.244v-2.51h.209l1.057 1.871 1.046-1.871h.197z"/><path d="m319.172 124.647v1.173h-.232v-.29c-.116.197-.325.313-.627.313-.419 0-.663-.22-.663-.546 0-.29.186-.534.709-.534h.581v-.116c0-.326-.174-.5-.511-.5-.233 0-.453.081-.604.221l-.116-.186c.185-.163.453-.256.743-.256.453-.011.72.233.72.721zm-.244.604v-.314h-.569c-.348 0-.465.139-.465.337 0 .221.175.36.465.36.267 0 .476-.139.569-.383z"/><path d="m320.764 123.915v.244c-.024 0-.047 0-.059 0-.383 0-.615.255-.615.697v.964h-.244v-1.894h.232v.372c.116-.256.349-.383.686-.383z"/><path d="m341.887 125.146h-1.348l-.29.674h-.268l1.116-2.51h.255l1.116 2.51h-.267zm-.093-.221-.581-1.347-.581 1.347z"/><path d="m344.652 124.867c0 .581-.383.965-.906.965-.291 0-.546-.128-.697-.372v1.057h-.244v-2.591h.232v.372c.151-.256.407-.383.709-.383.523 0 .906.383.906.952zm-.244 0c0-.441-.29-.732-.674-.732-.383 0-.674.302-.674.732 0 .442.291.732.674.732.384.012.674-.279.674-.732z"/><path d="m346.081 123.915v.244c-.023 0-.047 0-.058 0-.384 0-.616.255-.616.697v.964h-.244v-1.894h.232v.372c.117-.256.349-.383.686-.383z"/><path d="m371.212 123.299v2.509h-.244v-1.998l-.953 1.696h-.116l-.953-1.684v1.998h-.244v-2.51h.209l1.058 1.871 1.045-1.871h.198z"/><path d="m373.327 124.647v1.173h-.233v-.29c-.116.197-.325.313-.627.313-.418 0-.662-.22-.662-.546 0-.29.186-.534.708-.534h.581v-.116c0-.326-.174-.5-.511-.5-.232 0-.453.081-.604.221l-.116-.186c.186-.163.453-.256.743-.256.454-.011.721.233.721.721zm-.244.604v-.314h-.57c-.348 0-.464.139-.464.337 0 .221.174.36.464.36.268 0 .465-.139.57-.383z"/><path d="m375.499 123.926-.918 2.115c-.151.372-.349.488-.604.488-.175 0-.337-.058-.442-.175l.116-.185c.093.093.198.139.337.139.163 0 .279-.081.384-.314l.081-.186-.813-1.882h.255l.686 1.604.685-1.604z"/><path d="m394.1 125.483.151-.174c.127.197.313.314.522.314.303 0 .454-.186.454-.558v-1.522h-.883v-.233h1.138v1.743c0 .535-.244.79-.709.79-.267 0-.522-.128-.673-.36z"/><path d="m397.852 123.926v1.894h-.232v-.349c-.128.233-.361.361-.651.361-.465 0-.767-.268-.767-.814v-1.092h.244v1.069c0 .407.198.604.546.604.384 0 .616-.255.616-.685v-.988z"/><path d="m400.223 124.728v1.092h-.244v-1.069c0-.395-.198-.604-.546-.604-.395 0-.639.256-.639.685v.988h-.244v-1.894h.232v.349c.128-.233.384-.36.697-.36.43 0 .744.267.744.813z"/><path d="m421.183 125.484.151-.175c.127.198.313.314.522.314.303 0 .454-.186.454-.558v-1.522h-.883v-.232h1.138v1.743c0 .534-.244.79-.709.79-.278 0-.534-.128-.673-.36z"/><path d="m424.923 123.926v1.894h-.232v-.348c-.128.232-.36.36-.651.36-.464 0-.767-.268-.767-.814v-1.092h.244v1.069c0 .407.198.604.546.604.384 0 .616-.255.616-.685v-.988z"/><path d="m425.609 123.148h.244v2.66h-.244z"/><path d="m448.94 125.146h-1.348l-.291.674h-.267l1.116-2.51h.255l1.116 2.51h-.268zm-.093-.221-.581-1.347-.581 1.347z"/><path d="m451.472 123.926v1.894h-.232v-.349c-.128.233-.36.361-.651.361-.465 0-.767-.268-.767-.814v-1.092h.244v1.069c0 .407.198.604.546.604.384 0 .616-.255.616-.685v-.988z"/><path d="m453.854 123.926v1.662c0 .65-.314.941-.906.941-.337 0-.662-.105-.848-.291l.128-.197c.174.162.441.255.72.255.465 0 .674-.22.674-.685v-.244c-.151.244-.419.372-.709.372-.523 0-.918-.372-.918-.918s.395-.918.918-.918c.302 0 .569.128.72.372v-.349zm-.244.895c0-.407-.29-.686-.697-.686s-.685.279-.685.686c0 .406.29.697.685.697.407 0 .697-.279.697-.697z"/><path d="m248.509 124.31c0-.546.279-.883.662-.883s.662.325.662.883c0 .546-.279.883-.662.883s-.662-.337-.662-.883zm1.15 0c0-.465-.197-.721-.488-.721-.29 0-.488.256-.488.721 0 .464.198.72.488.72.291 0 .488-.256.488-.72z"/><path d="m246.998 115.27v1.731h-.174v-1.568h-.395v-.163z"/><path d="m247.393 116.142c0-.546.278-.883.662-.883.383 0 .662.325.662.883 0 .546-.279.883-.662.883-.384-.012-.662-.337-.662-.883zm1.15 0c0-.465-.198-.72-.488-.72-.291 0-.488.255-.488.72s.197.72.488.72c.29-.011.488-.267.488-.72z"/><path d="m247.672 110.088v.163h-1.173v-.128l.697-.709c.186-.197.221-.313.221-.43 0-.197-.14-.325-.396-.325-.197 0-.348.058-.453.198l-.116-.105c.128-.163.337-.244.593-.244.337 0 .557.174.557.465 0 .162-.046.313-.278.534l-.57.581z"/><path d="m247.881 109.38c0-.546.279-.883.662-.883.384 0 .662.325.662.883 0 .546-.278.883-.662.883-.383 0-.662-.337-.662-.883zm1.15 0c0-.465-.197-.721-.488-.721-.29 0-.488.256-.488.721s.198.72.488.72c.291 0 .488-.255.488-.72z"/><path d="m247.637 102.757c0 .29-.197.511-.604.511-.244 0-.476-.081-.604-.221l.081-.139c.105.116.302.197.511.197.279 0 .43-.127.43-.348 0-.209-.139-.349-.453-.349h-.116v-.128l.465-.604h-.849v-.162h1.069v.127l-.476.616c.372.023.546.221.546.5z"/><path d="m247.881 102.386c0-.547.279-.883.662-.883.384 0 .662.325.662.883 0 .546-.278.883-.662.883-.383 0-.662-.326-.662-.883zm1.15 0c0-.465-.197-.721-.488-.721-.29 0-.488.256-.488.721 0 .464.198.72.488.72.291 0 .488-.256.488-.72z"/><path d="m247.95 96.0413h-.337v.4532h-.174v-.4532h-.941v-.1278l.883-1.1502h.186l-.848 1.1154h.72v-.395h.163v.395h.337v.1626z"/><path d="m248.113 95.6351c0-.546.279-.883.663-.883.383 0 .662.3254.662.883 0 .5461-.279.8831-.662.8831-.384-.0117-.663-.337-.663-.8831zm1.15 0c0-.4647-.197-.7203-.487-.7203-.291 0-.488.2556-.488.7203 0 .4648.197.7204.488.7204.29-.0116.487-.2672.487-.7204z"/><path d="m247.661 89.5001c0 .2905-.198.5228-.605.5228-.244 0-.464-.0813-.592-.2207l.081-.1394c.105.1161.302.1975.511.1975.279 0 .43-.1395.43-.3486 0-.2207-.139-.3602-.557-.3602h-.361l.082-.8713h.906v.1626h-.767l-.058.5461h.209c.535 0 .721.2091.721.5112z"/><path d="m247.881 89.152c0-.5461.279-.883.662-.883.384 0 .662.3253.662.883 0 .5461-.278.883-.662.883-.383-.0116-.662-.3369-.662-.883zm1.15 0c0-.4648-.197-.7204-.488-.7204-.29 0-.488.2556-.488.7204 0 .4647.198.7203.488.7203.291-.0116.488-.2672.488-.7203z"/><path d="m247.789 82.7381c0 .3254-.244.5345-.569.5345-.442 0-.686-.3137-.686-.8598 0-.5925.314-.8946.767-.8946.151 0 .29.0232.395.0929l-.07.1395c-.081-.0581-.197-.0814-.325-.0814-.36 0-.593.244-.593.7088 0 .0348 0 .0929.012.1394.081-.1859.279-.2905.511-.2905.326-.0116.558.1975.558.5112zm-.174 0c0-.2323-.163-.3718-.419-.3718-.255 0-.429.1627-.429.3835 0 .1858.151.3717.441.3717.244 0 .407-.151.407-.3834z"/><path d="m247.985 82.39c0-.546.279-.883.663-.883.383 0 .662.3253.662.883 0 .5461-.279.883-.662.883-.384 0-.663-.3369-.663-.883zm1.151 0c0-.4647-.198-.7203-.488-.7203-.291 0-.488.2556-.488.7203 0 .4648.197.7204.488.7204.29 0 .488-.2556.488-.7204z"/><g opacity=".62"><path d="m456.155 82.8083h-199.641v.1743h199.641z" opacity=".238328"/><path d="m456.155 89.5587h-199.641v.1742h199.641z" opacity=".238328"/><path d="m456.155 96.2974h-199.641v.1742h199.641z" opacity=".238328"/><path d="m456.155 103.036h-199.641v.174h199.641z" opacity=".238328"/><path d="m456.155 109.775h-199.641v.174h199.641z" opacity=".238328"/><path d="m456.155 116.525h-199.641v.174h199.641z" opacity=".238328"/></g></g><path d="m301.407 84.2606c0-1.1386-.883-2.0565-1.987-2.0565-1.092 0-1.986.9179-1.986 2.0565s.883 2.0565 1.986 2.0565c1.093 0 1.987-.9295 1.987-2.0565z" fill="#4c5fec"/><path d="m357.804 118.733c1.097 0 1.987-.921 1.987-2.057 0-1.135-.89-2.056-1.987-2.056s-1.987.921-1.987 2.056c0 1.136.89 2.057 1.987 2.057z" fill="#4c5fec"/><path d="m194.365 341.251h-6.216v20.832h6.216z" fill="#4c5fec"/><path d="m142.419 338.23h-6.216v23.841h6.216z" fill="#4c5fec"/><path d="m155.408 333.269h-6.216v28.814h6.216z" fill="#4c5fec"/><path d="m168.387 334.849h-6.216v27.234h6.216z" fill="#4c5fec"/><path d="m181.376 325.635h-6.216v36.448h6.216z" fill="#4c5fec"/><path d="m207.343 325.81h-6.216v36.273h6.216z" fill="#4c5fec"/><path d="m220.333 337.719h-6.216v24.364h6.216z" fill="#4c5fec"/><path d="m233.311 327.401h-6.216v34.67h6.216z" fill="#4c5fec"/><path d="m246.3 319.594h-6.216v42.489h6.216z" fill="#4c5fec"/><path d="m259.278 327.227h-6.216v34.856h6.216z" fill="#4c5fec"/><path d="m272.28 387.911h-152.947c-6.959 0-12.629-5.67-12.629-12.63v-91.437c0-6.96 5.67-12.63 12.629-12.63h152.947c6.959 0 12.629 5.67 12.629 12.63v91.437c0 6.96-5.67 12.63-12.629 12.63zm-152.947-115.442c-6.274 0-11.374 5.101-11.374 11.375v91.437c0 6.274 5.1 11.375 11.374 11.375h152.947c6.274 0 11.374-5.101 11.374-11.375v-91.437c0-6.274-5.1-11.375-11.374-11.375z" fill="#e0e0e0"/><path d="m206.402 301.62c0 .174-17.695.325-39.514.325-21.832 0-39.515-.151-39.515-.325s17.683-.325 39.515-.325c21.819 0 39.514.139 39.514.325z" fill="#e0e0e0"/><path d="m371.397 356.738c-1.626.941-3.381 1.673-5.228 2.173-1.789.488-3.683.743-5.612.743-1.952 0-3.834-.255-5.623-.743-1.848-.488-3.602-1.232-5.229-2.173-1.638-.953-3.16-2.103-4.496-3.451-1.348-1.324-2.486-2.846-3.451-4.496-.941-1.627-1.673-3.381-2.172-5.228-.477-1.789-.732-3.683-.732-5.624 0-1.94.255-3.822.732-5.611.488-1.848 1.231-3.602 2.172-5.229.953-1.65 2.103-3.16 3.451-4.496 1.325-1.348 2.847-2.486 4.496-3.451 1.627-.941 3.381-1.673 5.229-2.172 1.789-.488 3.683-.744 5.623-.744v-4.276c-2.335 0-4.578.314-6.727.883-2.219.593-4.322 1.476-6.274 2.591-1.964 1.151-3.776 2.533-5.379 4.125-1.604 1.603-2.986 3.404-4.113 5.379-1.139 1.952-2.01 4.043-2.603 6.263-.569 2.161-.883 4.403-.883 6.727 0 2.335.314 4.577.883 6.727.593 2.219 1.476 4.322 2.603 6.274 1.138 1.975 2.521 3.776 4.113 5.379 1.603 1.604 3.415 2.986 5.379 4.113 1.952 1.139 4.055 2.01 6.274 2.603 2.138.569 4.392.883 6.727.883 2.324 0 4.566-.314 6.727-.883 2.219-.593 4.311-1.476 6.263-2.603s3.741-2.486 5.333-4.078l-3.033-3.032c-1.324 1.347-2.823 2.486-4.45 3.427z" fill="#4c5fec"/><path d="m385.653 331.224c-.593-2.219-1.476-4.311-2.591-6.263-1.15-1.975-2.533-3.776-4.125-5.379-1.603-1.603-3.404-2.986-5.379-4.124-1.952-1.127-4.043-1.999-6.263-2.591-2.161-.57-4.403-.883-6.727-.883v4.275c1.941 0 3.823.256 5.612.744 1.847.488 3.602 1.231 5.228 2.172 1.65.953 3.161 2.103 4.497 3.451 1.348 1.325 2.486 2.835 3.451 4.497.941 1.626 1.673 3.381 2.184 5.228.476 1.789.732 3.683.732 5.612 0 1.952-.256 3.834-.732 5.623-.5 1.847-1.243 3.602-2.184 5.228-.953 1.639-2.103 3.161-3.451 4.497-.012.011-.035.035-.047.035l3.033 3.032c.011 0 .035-.023.046-.035 1.604-1.603 2.986-3.404 4.125-5.379 1.127-1.952 1.998-4.055 2.591-6.274.569-2.138.883-4.392.883-6.727-.012-2.336-.326-4.578-.883-6.739z" fill="#e0e0e0"/><path d="m356.386 340.705c0 1.405-1.104 2.3-2.556 2.3-1.987 0-3.067-1.383-3.067-3.741 0-2.545 1.394-3.881 3.427-3.881.674 0 1.301.117 1.778.407l-.314.616c-.383-.256-.895-.349-1.452-.349-1.615 0-2.661 1.034-2.661 3.067 0 .175.012.384.035.616.372-.825 1.255-1.289 2.289-1.289 1.487.011 2.521.883 2.521 2.254zm-.755.023c0-.988-.732-1.615-1.882-1.615-1.151 0-1.929.709-1.929 1.638 0 .825.685 1.603 1.975 1.603 1.092 0 1.836-.627 1.836-1.626z" fill="#263238"/><path d="m362.369 340.739c0 1.278-.883 2.266-2.718 2.266-1.081 0-2.103-.372-2.684-.964l.372-.604c.488.499 1.336.871 2.3.871 1.278 0 1.952-.616 1.952-1.534 0-.964-.604-1.568-2.51-1.568h-1.591l.383-3.753h4.101v.686h-3.427l-.256 2.381h.965c2.254 0 3.113.895 3.113 2.219z" fill="#263238"/><path d="m363.137 337.428c0-1.22.685-2.033 1.696-2.033.999 0 1.696.802 1.696 2.033 0 1.232-.697 2.033-1.696 2.033-1.011 0-1.696-.801-1.696-2.033zm2.846 0c0-.976-.464-1.557-1.162-1.557-.708 0-1.15.593-1.15 1.557 0 .965.453 1.557 1.15 1.557.698 0 1.162-.581 1.162-1.557zm3.381-1.975h.628l-5.124 7.494h-.628zm-1.638 5.519c0-1.22.697-2.033 1.696-2.033 1.011 0 1.697.813 1.697 2.033s-.686 2.033-1.697 2.033c-.999 0-1.696-.813-1.696-2.033zm2.847 0c0-.965-.454-1.557-1.162-1.557-.697 0-1.162.581-1.162 1.557s.465 1.557 1.162 1.557c.708-.012 1.162-.605 1.162-1.557z" fill="#263238"/><path d="m461.337 337.963c0 2.323-.314 4.577-.883 6.715-.593 2.219-1.476 4.322-2.603 6.263-1.139 1.963-2.521 3.787-4.125 5.379-1.603 1.603-3.415 2.986-5.379 4.125-1.94 1.138-4.032 2.01-6.262 2.602-2.138.569-4.392.883-6.727.883-2.324 0-4.578-.314-6.716-.883-2.219-.592-4.322-1.475-6.262-2.602-1.964-1.139-3.788-2.522-5.38-4.125-1.603-1.603-2.986-3.416-4.124-5.379-1.139-1.941-2.01-4.032-2.603-6.263-.43-1.592-.697-3.23-.825-4.914h4.311c.116 1.301.325 2.579.65 3.81.5 1.859 1.232 3.614 2.173 5.229.964 1.638 2.115 3.16 3.462 4.485 1.336 1.347 2.847 2.498 4.497 3.462 1.615.929 3.369 1.673 5.228 2.173 1.801.476 3.672.732 5.612.732 1.952 0 3.822-.256 5.623-.732 1.859-.5 3.614-1.232 5.228-2.173 1.639-.964 3.161-2.115 4.485-3.462 1.348-1.337 2.498-2.847 3.463-4.485.929-1.615 1.673-3.37 2.172-5.229.477-1.8.732-3.671.732-5.611 0-1.952-.255-3.823-.732-5.624-.499-1.859-1.231-3.613-2.172-5.228-.965-1.638-2.115-3.16-3.463-4.496-1.336-1.348-2.846-2.498-4.485-3.451-1.614-.93-3.369-1.673-5.228-2.173-1.801-.476-3.671-.732-5.623-.732v-4.275c2.335 0 4.589.313 6.727.883 2.219.592 4.322 1.475 6.262 2.602 1.964 1.139 3.788 2.521 5.38 4.125 1.603 1.603 2.986 3.416 4.124 5.379 1.139 1.94 2.01 4.032 2.603 6.263.546 2.137.86 4.391.86 6.727z" fill="#e0e0e0"/><path d="m429.501 335.023v.546l-3.137 6.948h-.836l3.079-6.808h-3.858v1.406h-.755v-2.092z" fill="#263238"/><path d="m435.404 340.31c0 1.278-.883 2.265-2.719 2.265-1.081 0-2.103-.372-2.684-.964l.372-.616c.488.5 1.336.871 2.3.871 1.278 0 1.952-.615 1.952-1.533 0-.965-.604-1.569-2.509-1.569h-1.592l.383-3.752h4.102v.685h-3.428l-.256 2.382h.965c2.254.023 3.114.906 3.114 2.231z" fill="#263238"/><path d="m436.17 337.01c0-1.22.685-2.033 1.696-2.033.999 0 1.697.801 1.697 2.033 0 1.231-.698 2.033-1.697 2.033-1.011 0-1.696-.813-1.696-2.033zm2.846 0c0-.976-.464-1.557-1.161-1.557-.709 0-1.162.593-1.162 1.557s.453 1.557 1.162 1.557c.697-.012 1.161-.581 1.161-1.557zm3.381-1.987h.628l-5.112 7.494h-.628zm-1.638 5.519c0-1.22.697-2.033 1.697-2.033 1.01 0 1.696.813 1.696 2.033s-.686 2.033-1.696 2.033c-1 0-1.697-.813-1.697-2.033zm2.847 0c0-.964-.453-1.557-1.15-1.557-.698 0-1.162.581-1.162 1.557s.464 1.557 1.162 1.557c.697-.012 1.15-.593 1.15-1.557z" fill="#263238"/><path d="m457.06 337.963c0 1.94-.255 3.81-.732 5.611-.499 1.859-1.231 3.614-2.172 5.229-.965 1.638-2.115 3.16-3.463 4.484-1.336 1.348-2.846 2.498-4.484 3.463-1.615.929-3.37 1.673-5.229 2.172-1.801.477-3.671.732-5.623.732-1.94 0-3.811-.255-5.612-.732-1.859-.499-3.613-1.231-5.228-2.172-1.638-.965-3.16-2.115-4.496-3.463-1.348-1.336-2.498-2.846-3.463-4.484-.929-1.615-1.673-3.37-2.172-5.229-.326-1.231-.535-2.509-.651-3.811-.047-.592-.081-1.196-.081-1.8 0-1.941.255-3.823.743-5.612.5-1.859 1.232-3.613 2.173-5.228.953-1.65 2.114-3.161 3.451-4.497 1.336-1.336 2.846-2.498 4.496-3.451 1.626-.941 3.381-1.673 5.228-2.172 1.789-.477 3.672-.744 5.612-.744v-4.287c-2.324 0-4.578.314-6.727.883-2.219.593-4.322 1.476-6.263 2.603-1.975 1.138-3.787 2.521-5.379 4.124-1.603 1.603-2.986 3.416-4.125 5.38-1.127 1.94-2.01 4.043-2.602 6.262-.569 2.149-.883 4.403-.883 6.727 0 .604.023 1.208.07 1.801.127 1.685.395 3.334.825 4.915.592 2.219 1.475 4.322 2.602 6.262 1.139 1.963 2.521 3.788 4.125 5.379 1.603 1.604 3.416 2.986 5.379 4.125 1.94 1.138 4.032 2.01 6.262 2.602 2.138.57 4.392.883 6.716.883 2.335 0 4.589-.313 6.727-.883 2.219-.592 4.322-1.475 6.262-2.602 1.964-1.139 3.788-2.521 5.38-4.125 1.603-1.603 2.986-3.416 4.124-5.379 1.139-1.94 2.01-4.032 2.603-6.262.569-2.138.883-4.392.883-6.716h-4.276z" fill="#4c5fec"/><path d="m481.796 387.911h-167.678c-6.216 0-11.282-5.066-11.282-11.282v-94.122c0-6.215 5.066-11.281 11.282-11.281h167.678c6.228 0 11.282 5.066 11.282 11.281v94.122c0 6.216-5.054 11.282-11.282 11.282zm-167.678-115.407c-5.519 0-10.004 4.485-10.004 10.003v94.122c0 5.519 4.485 10.004 10.004 10.004h167.678c5.519 0 10.004-4.485 10.004-10.004v-94.122c0-5.518-4.485-10.003-10.004-10.003z" fill="#e0e0e0"/><path d="m399.711 297.658c0 .186-17.532.337-39.154.337-21.634 0-39.155-.151-39.155-.337s17.533-.337 39.155-.337 39.154.151 39.154.337z" fill="#e0e0e0"/><path d="m206.984 123.589h-83.386c-4.671 0-8.458-3.787-8.458-8.458v-30.4521c0-4.6707 3.787-8.4583 8.458-8.4583h83.386c4.671 0 8.458 3.7876 8.458 8.4583v30.4521c0 4.671-3.787 8.458-8.458 8.458z" fill="#4c5fec"/><path d="m137.83 109.938v1.429h-.627v-1.418c-1.22-.058-2.37-.511-2.974-1.138l.36-.709c.569.558 1.568.987 2.614 1.045v-3.276c-1.371-.337-2.765-.755-2.765-2.405 0-1.197.859-2.231 2.765-2.382v-1.4288h.627v1.4178c.93.034 1.871.313 2.533.766l-.314.732c-.697-.453-1.498-.685-2.219-.72v3.3c1.406.337 2.893.732 2.893 2.405-.011 1.22-.918 2.265-2.893 2.382zm-.627-4.938v-3.114c-1.278.116-1.859.767-1.859 1.557 0 .941.836 1.301 1.859 1.557zm2.602 2.614c0-.988-.906-1.325-1.975-1.58v3.113c1.371-.092 1.975-.731 1.975-1.533z" fill="#fff"/><path d="m151.169 109.078v.801h-6.112v-.639l3.625-3.555c.988-.976 1.174-1.557 1.174-2.149 0-1.011-.709-1.638-2.045-1.638-1.023 0-1.801.313-2.382.975l-.639-.546c.674-.801 1.754-1.243 3.091-1.243 1.766 0 2.893.895 2.893 2.359 0 .836-.268 1.58-1.43 2.73l-2.962 2.916h4.787z" fill="#fff"/><path d="m154.712 101.154v8.725h-.895v-7.923h-2.056v-.802z" fill="#fff"/><path d="m156.792 105.511c0-2.777 1.464-4.438 3.474-4.438 2.022 0 3.486 1.661 3.486 4.438s-1.464 4.438-3.486 4.438c-2.01 0-3.474-1.661-3.474-4.438zm6.042 0c0-2.324-1.046-3.613-2.568-3.613s-2.568 1.278-2.568 3.613c0 2.324 1.046 3.613 2.568 3.613s2.568-1.289 2.568-3.613z" fill="#fff"/><path d="m165.041 105.511c0-2.777 1.452-4.438 3.474-4.438s3.485 1.661 3.485 4.438-1.463 4.438-3.485 4.438c-2.01 0-3.474-1.661-3.474-4.438zm6.042 0c0-2.324-1.046-3.613-2.568-3.613s-2.568 1.278-2.568 3.613c0 2.324 1.046 3.613 2.568 3.613s2.568-1.289 2.568-3.613z" fill="#fff"/><path d="m174.498 109.252c0 .209-.046.372-.174.72l-.523 1.72h-.592l.418-1.813c-.267-.069-.453-.313-.453-.639 0-.383.29-.673.662-.673.383.011.662.302.662.685z" fill="#fff"/><path d="m182.085 105.441c0 2.963-1.615 4.508-3.985 4.508-.79 0-1.522-.139-2.068-.476l.36-.721c.453.303 1.046.407 1.696.407 1.882 0 3.091-1.208 3.091-3.578 0-.198-.012-.454-.035-.709-.442.964-1.452 1.499-2.672 1.499-1.731 0-2.94-1.023-2.94-2.615 0-1.626 1.278-2.672 2.975-2.672 2.323-.011 3.578 1.604 3.578 4.357zm-1.232-1.743c0-.964-.801-1.87-2.3-1.87-1.255 0-2.126.732-2.126 1.894 0 1.15.848 1.882 2.196 1.882 1.324.011 2.23-.813 2.23-1.906z" fill="#fff"/><path d="m183.387 105.511c0-2.777 1.464-4.438 3.474-4.438 2.021 0 3.485 1.661 3.485 4.438s-1.464 4.438-3.485 4.438c-2.022 0-3.474-1.661-3.474-4.438zm6.041 0c0-2.324-1.045-3.613-2.567-3.613s-2.568 1.278-2.568 3.613c0 2.324 1.046 3.613 2.568 3.613s2.567-1.289 2.567-3.613z" fill="#fff"/><path d="m168.864 90.9645c0 .151-8.075.2672-18.032.2672s-18.032-.1162-18.032-.2672 8.075-.2672 18.032-.2672c9.968 0 18.032.1162 18.032.2672z" fill="#fff"/><path d="m501.375 443.958c-.047 0-.047.79 0 2.208.046 1.417.151 3.462.29 5.983.291 5.055.79 12.026 1.371 19.729s1.092 14.674 1.418 19.716c.162 2.44.29 4.45.395 5.984.104 1.417.174 2.196.22 2.196.047 0 .059-.79.047-2.196-.012-1.418-.07-3.462-.174-5.995-.198-5.054-.628-12.049-1.22-19.752-.605-7.645-1.162-14.558-1.569-19.705-.209-2.428-.372-4.438-.511-5.972-.128-1.417-.221-2.196-.267-2.196z" fill="#455a64"/><path d="m501.375 443.958c-.047 0-.047.79 0 2.208.046 1.417.151 3.462.29 5.983.291 5.055.79 12.026 1.371 19.729s1.092 14.674 1.418 19.716c.162 2.44.29 4.45.395 5.984.104 1.417.174 2.196.22 2.196.047 0 .059-.79.047-2.196-.012-1.418-.07-3.462-.174-5.995-.198-5.054-.628-12.049-1.22-19.752-.605-7.645-1.162-14.558-1.569-19.705-.209-2.428-.372-4.438-.511-5.972-.128-1.417-.221-2.196-.267-2.196z" fill="#455a64"/><path d="m445.676 480.394.418 23.597s-23.841 8.354-24.19 12.723l45.789.836.86-36.796z" fill="#222848"/><path d="m460.28 502.26c.883.256 1.475 1.267 1.255 2.161-.221.895-1.243 1.499-2.126 1.267-.883-.244-1.639-1.43-1.313-2.289.325-.86 1.557-1.511 2.358-1.069" fill="#e0e0e0"/><path d="m467.681 517.538-.058-3.717-43.872.592s-2.057.848-1.847 2.289z" fill="#455a64"/><path d="m445.35 503.747c0 .221 1.115.349 2.207 1.081 1.104.709 1.65 1.685 1.859 1.603.209-.035-.104-1.382-1.429-2.254-1.324-.883-2.684-.639-2.637-.43z" fill="#fff"/><path d="m440.516 505.641c-.058.221.906.616 1.65 1.569.767.941.941 1.963 1.162 1.952.209.034.383-1.267-.558-2.44-.929-1.174-2.254-1.29-2.254-1.081z" fill="#fff"/><path d="m437.682 511.346c.198.046.534-1.057-.023-2.301-.546-1.243-1.592-1.742-1.685-1.557-.128.186.535.849.976 1.871.465 1.011.511 1.952.732 1.987z" fill="#fff"/><path d="m445.85 498.356c.093.209 1.127-.081 2.382.024 1.266.081 2.242.522 2.358.336.128-.162-.813-.999-2.3-1.115-1.476-.116-2.545.581-2.44.755z" fill="#fff"/><path d="m501.537 478.953 2.475 28.442-4.531 23.063c-.325 1.662.825 3.253 2.51 3.463.941.116 1.87-.221 2.521-.918 4.078-4.45 19.008-20.89 18.717-22.958-.348-2.394-.627-30.185-.627-30.185z" fill="#222848"/><path d="m501.99 533.921 21.111-25.805.081 1.208c.07 1.046-.232 2.08-.859 2.916-1.673 2.243-6.425 8.331-17.719 20.763-.673.72-1.649 1.069-2.614.918z" fill="#455a64"/><path d="m516.653 499.309c-.685.534-.848 1.638-.337 2.335.512.709 1.627.883 2.312.349.698-.523.93-1.836.337-2.475-.581-.639-1.905-.778-2.451-.104" fill="#fff" opacity=".0279936"/><path d="m507.707 521.059c-.151.093-.895-1.359-2.638-2.057-1.719-.743-3.276-.244-3.322-.418-.035-.07.313-.314.975-.453.651-.139 1.627-.105 2.58.291.952.395 1.661 1.057 2.033 1.626s.442.976.372 1.011z" fill="#fff"/><path d="m505.918 524.998c-.128.127-1.104-.732-2.603-1.069-1.498-.361-2.753 0-2.8-.186-.093-.14 1.243-.837 2.951-.43 1.697.395 2.591 1.603 2.452 1.685z" fill="#fff"/><path d="m511.169 515.924c-.128.139-1.615-1.197-3.904-1.918-2.277-.755-4.276-.522-4.287-.708-.058-.151 2.033-.686 4.484.116 2.44.778 3.835 2.417 3.707 2.51z" fill="#fff"/><path d="m511.134 507.21c-.07.174-1.685-.384-3.73-.326-2.056.035-3.648.651-3.718.477-.092-.14 1.499-1.069 3.707-1.104 2.207-.047 3.822.813 3.741.953z" fill="#fff"/><path d="m510.623 498.844c-.081.175-1.72-.674-3.881-.441-2.161.186-3.613 1.348-3.718 1.196-.046-.058.233-.429.872-.859.627-.419 1.626-.837 2.788-.965 1.162-.116 2.219.105 2.917.395.697.291 1.057.605 1.022.674z" fill="#fff"/><path d="m506.684 496.811c-.034 0-.127-.372-.104-1.08.023-.698.151-1.72.674-2.882.279-.546.546-1.255 1.324-1.673.384-.209.976-.174 1.336.174.361.349.5.802.535 1.255.081 1.813-1.36 3.66-3.37 4.055-2.033.36-3.95-.697-4.868-2.208-.197-.395-.36-.883-.162-1.382.186-.5.755-.732 1.161-.686.86.07 1.418.523 1.941.86 1.034.732 1.696 1.522 2.091 2.091.395.581.535.942.5.953-.093.082-.814-1.348-2.835-2.672-.511-.302-1.092-.686-1.708-.709-.302-.011-.546.128-.639.372-.093.232-.012.593.163.895.766 1.231 2.532 2.184 4.24 1.859 1.708-.314 2.963-1.941 2.917-3.393-.024-.349-.14-.697-.337-.895-.198-.197-.477-.232-.732-.104-.546.255-.872.883-1.151 1.394-1.069 2.184-.836 3.799-.976 3.776z" fill="#fff"/><path d="m423.426 283.344s-3.474 13.443-2.208 29.825c.488 6.332 21.878 181.644 21.878 181.644h28.872l-8.121-164.763 2.358.512s15.766 70.268 17.045 81.655c1.15 10.224 14.453 84.524 14.453 84.524l26.397.302-8.435-98.269-9.806-94.296-3.695-27.455z" fill="#1b255e"/><path d="m468.39 313.238c.011.035-.407.291-1.209.674-.801.372-1.975.953-3.578 1.255-.802.151-1.708.186-2.661.023-.952-.162-1.963-.569-2.777-1.336-.825-.767-1.347-1.836-1.684-2.951-.337-1.127-.535-2.289-.779-3.474-.918-4.752-1.545-9.097-1.905-12.246-.186-1.58-.302-2.858-.372-3.741s-.081-1.371-.035-1.383c.047 0 .14.477.267 1.36.151.999.337 2.242.558 3.706.476 3.126 1.162 7.448 2.08 12.188.465 2.347.778 4.729 2.242 6.135 1.464 1.371 3.497 1.522 4.985 1.301 1.533-.233 2.73-.732 3.543-1.046.848-.337 1.301-.511 1.325-.465z" fill="#e0e0e0" opacity=".4"/><path d="m459.699 290.884c-.012-.023.185-.151.592-.174.407-.035 1.011.093 1.615.523.581.43 1.197 1.185 1.22 2.231.046 1.057-.778 2.091-1.847 2.474-1.069.419-2.371.175-3.021-.65-.662-.802-.709-1.778-.546-2.475.174-.72.557-1.208.871-1.452.325-.244.558-.279.558-.256.081.081-.813.488-1.011 1.789-.093.616.012 1.441.546 2.022.511.604 1.51.778 2.382.453.883-.325 1.51-1.115 1.499-1.905.011-.802-.453-1.476-.918-1.883-1.011-.859-1.952-.58-1.94-.697z" fill="#e0e0e0" opacity=".4"/><path d="m505.453 302.77c0 .047-.349.093-.988.151-.639.07-1.569.081-2.707.035-2.289-.105-5.449-.651-8.691-2.01-3.241-1.371-5.844-3.253-7.517-4.81-.836-.778-1.476-1.452-1.871-1.964-.406-.499-.604-.778-.58-.813.081-.07 1.01.988 2.73 2.44 1.719 1.452 4.299 3.23 7.471 4.578 3.171 1.324 6.25 1.94 8.493 2.149 2.242.221 3.648.14 3.66.244z" fill="#e0e0e0" opacity=".4"/><path d="m435.265 291.419c.058.035-.43 1.197-1.499 2.939-1.069 1.743-2.765 4.032-5.007 6.216-2.243 2.184-4.578 3.811-6.356 4.833-1.777 1.023-2.951 1.476-2.986 1.418-.046-.093 1.069-.686 2.754-1.778 1.696-1.103 3.939-2.765 6.146-4.903 2.208-2.149 3.927-4.345 5.078-6.006 1.161-1.674 1.789-2.766 1.87-2.719z" fill="#e0e0e0" opacity=".4"/><path d="m437.054 97.4593c-2.614.1626-5.194-1.8822-5.612-4.4732-.43-2.5909 1.348-5.3561 3.881-6.0416-1.534-1.7428-1.801-4.4848-.628-6.4831 1.174-2.01 3.683-3.1254 5.961-2.6491.209-2.2772 1.684-4.4034 3.752-5.391 2.069-.9875 4.648-.8133 6.553.4532 2.638-2.0333 6.716-1.9171 9.225.2788 2.243-.3021 4.601 1.0108 5.542 3.0673.942 2.0565.384 4.6939-1.312 6.2043" fill="#1b255e"/><path d="m436.241 98.1679c1.533-11.7347 11.827-20.3208 23.643-19.7282l1.174.0581c12.629 1.3709 18.52 12.8617 16.8 25.4442l-3.927 42.083-.209 2.044-29.511 4.404.581-10.747s-12.083-2.498-11.63-14.674c.209-5.891 1.65-17.974 3.079-28.8841z" fill="#deaa96"/><path d="m444.676 141.691s7.75.848 16.185-3.881c0 0-4.183 8.575-16.278 6.878z" fill="#65463c"/><path d="m438.262 107.73c-.081.918.639 1.743 1.592 1.836s1.789-.558 1.87-1.476c.082-.918-.627-1.743-1.591-1.836-.965-.104-1.801.558-1.871 1.476z" fill="#263238"/><path d="m438.565 104.256c.209.232 1.568-.674 3.439-.569 1.871.069 3.195 1.104 3.404.883.105-.093-.093-.511-.674-.976-.569-.465-1.545-.93-2.718-.988-1.162-.046-2.161.326-2.754.744-.593.395-.802.79-.697.906z" fill="#263238"/><path d="m455.922 109.415c-.081.918.639 1.742 1.592 1.835.953.105 1.789-.557 1.871-1.475.081-.918-.639-1.743-1.592-1.836-.953-.104-1.801.558-1.871 1.476z" fill="#263238"/><path d="m456.922 105.511c.209.232 1.568-.674 3.439-.569 1.87.069 3.195 1.103 3.404.883.104-.093-.093-.512-.674-.976-.569-.465-1.545-.93-2.719-.988-1.162-.046-2.161.325-2.753.744-.581.406-.79.801-.697.906z" fill="#263238"/><path d="m449.451 119.046c.011-.104-1.139-.36-3.009-.697-.477-.069-.918-.186-.988-.523-.093-.348.128-.859.383-1.394.512-1.138 1.034-2.323 1.592-3.567 2.219-5.077 3.846-9.271 3.648-9.353-.209-.093-2.172 3.962-4.391 9.04-.535 1.254-1.046 2.451-1.534 3.59-.209.534-.546 1.138-.337 1.859.116.36.453.639.755.732.302.104.569.128.802.151 1.894.197 3.067.267 3.079.162z" fill="#263238"/><path d="m454.889 120.615c-.302-.035-.407 1.998-2.22 3.346-1.8 1.359-3.961 1.023-3.985 1.301-.035.128.465.419 1.371.488.895.07 2.219-.151 3.323-.976 1.104-.836 1.615-1.986 1.731-2.811.117-.837-.081-1.348-.22-1.348z" fill="#263238"/><path d="m456.805 98.1563c.163.5228 2.033.3718 4.218.7436 2.184.3253 3.927 1.0573 4.24.6158.14-.2092-.139-.7088-.836-1.2316-.686-.5228-1.789-1.0457-3.102-1.2664-1.313-.2092-2.521-.0581-3.346.2207-.814.3021-1.244.6739-1.174.9179z" fill="#263238"/><path d="m439.517 98.8767c.314.4415 1.615.0697 3.172.1161 1.557 0 2.847.4299 3.172 0 .139-.2091-.046-.6506-.593-1.0805-.546-.4299-1.475-.8017-2.544-.8249s-2.01.3253-2.568.732c-.569.4066-.778.8365-.639 1.0573z" fill="#263238"/><path d="m437.682 92.6491s3.59-7.4591 7.354-9.0624c4.555-1.9287 6.228 3.044 10.527 2.0681 4.298-.976 8.644-2.8349 12.815.6622 4.566 3.8225 2.219 6.2276 2.242 11.6418.105 21.9592 3.788 28.3492 5.438 18.0902.186-1.127 3.357-1.871 4.066-6.623.906-6.158 1.522-13.6631.36-18.1246-.976-3.7644-2.962-6.4251-6.611-9.4343-5.751-4.7519-13.953-5.2515-19.565-4.9727-5.589.3021-16.65 6.1811-16.626 15.7547z" fill="#1b255e"/><path d="m475.314 115.689c.175-1.871 1.859-3.277 3.73-3.01 2.254.326 4.717 1.743 4.334 6.425-.674 8.308-8.877 5.914-8.877 5.67 0-.162.5-5.611.813-9.085z" fill="#deaa96"/><path d="m476.568 121.8c.035-.023.14.116.372.244.233.128.639.232 1.081.116.906-.255 1.754-1.58 1.917-3.079.081-.755-.012-1.487-.233-2.103-.209-.627-.557-1.08-.999-1.196-.43-.14-.767.104-.883.325-.128.221-.093.395-.139.407-.023.023-.163-.151-.07-.488.047-.163.163-.349.372-.488.209-.151.511-.209.813-.151.639.093 1.162.732 1.406 1.405.279.686.407 1.511.314 2.359-.186 1.673-1.174 3.172-2.405 3.416-.593.104-1.069-.116-1.302-.325-.255-.244-.278-.43-.244-.442z" fill="#65463c"/><path d="m475.953 99.5506c-1.115.6854-2.3 1.3824-3.602 1.4524-1.313.07-2.765-.755-2.916-2.0566-.07-.5809.105-1.2548-.256-1.7195-.429-.5577-1.278-.4299-1.975-.3951-2.428.1395-4.821-1.6963-5.321-4.0781-.662.8946-2.103.7785-3.009.1278-.906-.6506-1.452-1.6614-2.15-2.5328-.685-.8714-1.673-1.6731-2.788-1.5685-.616.0581-1.208.395-1.824.3137-1.092-.151-1.557-1.4523-1.673-2.5561-.116-1.0921-.175-2.3702-1.069-2.9976-.825-.5925-1.964-.3253-2.975-.2323-1.01.0929-2.3-.1975-2.509-1.1967-.105-.5229.139-1.0573.453-1.4872 1.394-1.9752 4.264-2.742 6.46-1.7196.953-2.7071 3.625-4.7171 6.495-4.8797 2.869-.1627 5.751 1.5452 6.994 4.1362 1.836-1.5104 4.427-2.0565 6.716-1.4059 2.288.639 4.217 2.4515 4.996 4.6939 2.056-.4299 4.322.4647 5.518 2.1843 1.197 1.7195 1.267 4.1594.151 5.9371 1.453.9294 2.661 2.4747 2.603 4.2059-.058 1.7195-1.813 3.3577-3.462 2.8233.604 1.3709-.035 3.1718-1.371 3.8575-1.337.685-3.161.151-3.927-1.1388" fill="#1b255e"/><path d="m450.056 81.3211c-.012 0-.012.0465 0 .1511.011.1045 0 .2556.034.4415.059.3834.186.9643.523 1.6382.349.6622.895 1.4291 1.743 2.0565.837.639 2.01 1.1502 3.358 1.1386l-.128-.1859c-.29.6971-.267 1.5569.058 2.3004.302.7552.79 1.4524 1.325 2.1146.267.3253.499.6971.883.9992.371.2905.825.4764 1.289.5577.93.1627 2.01-.0697 2.731-.8249l-.302-.1046c.127 1.6615.987 3.3694 2.428 4.4499.767.6158 1.719 1.0108 2.684 1.0341.964.0348 1.87-.1976 2.718-.4532l-.22-.1045c.395 1.0572 1.034 1.9751 1.847 2.6606.79.6855 1.859 1.1266 2.858.9296 1.987-.3138 3.37-1.8823 3.707-3.416l-.198.0814c.953.5809 1.987.6855 2.835.5577.86-.1162 1.545-.4532 2.033-.7901.5-.3486.802-.7204.976-.976.174-.2672.244-.4182.233-.4182-.035-.0349-.303.6158-1.29 1.278-.488.3137-1.162.6158-1.987.7087-.813.093-1.801-.0232-2.672-.5809l-.151-.0929-.047.1742c-.337 1.4175-1.661 2.8814-3.508 3.1603-.907.1626-1.848-.2208-2.591-.883-.744-.6507-1.36-1.5337-1.732-2.5329l-.058-.1626-.162.0465c-.837.2556-1.708.4763-2.603.4298-.895-.0232-1.754-.3834-2.486-.9643-1.36-1.0224-2.173-2.6142-2.301-4.1943l-.035-.395-.278.2905c-.605.6506-1.569.883-2.405.7319-.419-.0697-.825-.2324-1.151-.4763-.313-.244-.557-.6158-.836-.9411-.523-.6623-1.011-1.3245-1.29-2.0333-.302-.6971-.325-1.4523-.081-2.0913l.081-.1975h-.209c-1.278.0232-2.405-.4415-3.218-1.0457-.837-.5925-1.383-1.3245-1.743-1.9519-.662-1.2548-.593-2.1378-.662-2.1146z" fill="#fff" opacity=".2"/><path d="m490.581 206.604 11.049 10.642-3.567-20.367 22.424-7.087s5.96 27.942 6.994 34.553c1.859 11.863-.418 28.721-11.479 29.906-11.956 1.278-20.983-10.503-26.723-18.241-4.415-5.949-11.549-16.347-11.549-16.347z" fill="#e0e0e0"/><path d="m405.162 188.502c-3.602 11.328-8.633 13.036-10.62 45.498-.383 6.332 4.357 14.442 10.015 17.3 5.659 2.858 15.511-.651 18.718-6.123l3.172-24.004z" fill="#e0e0e0"/><path d="m420.022 235.906c-.116.034-.744-2.266-2.208-4.764-1.452-2.521-3.137-4.194-3.044-4.287.035-.035.5.337 1.162 1.045.662.709 1.487 1.755 2.231 3.033s1.243 2.521 1.534 3.439c.29.929.371 1.522.325 1.534z" fill="#263238"/><path d="m399.747 201.561c.186-.674 11.258-30.789 14.79-37.388 4.23-7.889 13.106-11.375 18.613-11.712s64.495 4.357 64.495 4.357 16.521 4.148 19.867 19.101c4.195 18.741 7.564 37.226 7.564 37.226l-29.557 6.378-3.474-8.76-55.537 12.397-13.594-20.054z" fill="#e0e0e0"/><path d="m501.2 248.186-.767-26.711 1.092-62.937-23.039-10.155-2.58-9.934-26.885 12.711-5.635-6.227-2.359 7.017-5.89 1.929-11.595 22.865-.512 40.096s-3.973 56.082-2.323 68.665c0 0 5.402 1.998 18.775 2.324 27.095.65 63.983-1.058 63.983-1.058l.384-1.185c1.057-3.299 1.371-6.796.918-10.236z" fill="#e0e0e0"/><path d="m478.474 202.99c-.012.105-1.36.023-3.532-.151-2.452-.209-5.31-.441-8.47-.709-3.16-.232-6.019-.453-8.482-.639-2.172-.162-3.52-.29-3.508-.406 0-.105 1.347-.163 3.532-.14 2.184.024 5.193.151 8.516.407 3.323.267 6.309.616 8.47.93 2.161.325 3.485.604 3.474.708z" fill="#fff"/><path d="m478.102 207.115c-.012.104-1.36.023-3.532-.151-2.452-.209-5.31-.442-8.47-.709-3.16-.232-6.019-.453-8.482-.627-2.172-.163-3.52-.291-3.509-.407 0-.105 1.348-.163 3.532-.139 2.185.023 5.194.151 8.517.406 3.323.267 6.309.616 8.47.93 2.161.313 3.485.592 3.474.697z" fill="#fff"/><path d="m477.719 211.239c-.012.105-1.36.024-3.532-.151-2.452-.209-5.31-.441-8.47-.708-3.16-.233-6.018-.453-8.482-.639-2.172-.163-3.508-.291-3.508-.407 0-.105 1.347-.163 3.532-.139 2.184.023 5.193.151 8.516.406 3.323.267 6.309.616 8.47.93 2.161.337 3.485.604 3.474.708z" fill="#fff"/><path d="m477.347 215.364c-.012.105-1.36.023-3.532-.151-2.452-.209-5.31-.442-8.47-.709-3.16-.232-6.019-.453-8.482-.627-2.172-.163-3.52-.291-3.508-.407 0-.104 1.347-.162 3.532-.139 2.184.023 5.193.151 8.516.406 3.323.268 6.309.616 8.47.93 2.161.325 3.485.592 3.474.697z" fill="#fff"/><path d="m439.576 285.505c-.012 0-.024-.105-.047-.325-.023-.256-.046-.57-.07-.953-.046-.906-.116-2.138-.209-3.683-.139-3.265-.348-7.889-.604-13.559-.43-11.456-.964-27.28-.79-44.778.105-8.748.395-17.102 1.243-24.654.872-7.552 2.173-14.268 3.335-19.879 1.185-5.612 2.277-10.12 3.032-13.222.384-1.499.674-2.696.895-3.579.104-.372.186-.674.255-.929.059-.209.093-.314.105-.314s0 .116-.035.325c-.046.256-.104.57-.186.941-.186.883-.441 2.092-.767 3.614-.673 3.125-1.684 7.656-2.811 13.268-1.104 5.612-2.347 12.327-3.184 19.844-.801 7.518-1.069 15.848-1.173 24.585-.174 17.475.279 33.299.581 44.755.151 5.681.279 10.294.372 13.57.034 1.557.058 2.777.069 3.695v.964c.012.198 0 .314-.011.314z" fill="#263238"/><path d="m456.91 187.038c-.023-.023.523-.012 1.557.047 1.127.069 2.649.162 4.555.267 4.066.279 9.736.662 16.579 1.138l.314.024-.023.313c-.57 7.599-1.255 16.696-1.999 26.514l-.011.174-.14.105c-.778.557-1.615 1.127-2.474 1.696-1.522.988-3.068 1.905-4.659 2.707-1.592.755-3.242 1.522-5.054 1.627-1.801.104-3.509-.419-5.008-1.162-1.499-.755-2.835-1.708-4.055-2.707-.604-.5-1.197-1.023-1.754-1.546-.256-.232-.616-.581-.79-.952-.221-.36-.326-.744-.442-1.116-.383-1.498-.418-2.974-.407-4.368.059-2.812.372-5.391.698-7.738.685-4.694 1.498-8.447 2.079-11.026.302-1.29.546-2.289.721-2.963.174-.685.29-1.046.313-1.034.024.012-.035.372-.162 1.057-.151.756-.337 1.755-.581 2.986-.488 2.603-1.22 6.356-1.836 11.038-.302 2.335-.581 4.915-.604 7.68 0 1.371.058 2.811.418 4.182.209.698.465 1.267 1.046 1.743.557.511 1.138 1.011 1.731 1.499 1.197.976 2.498 1.882 3.927 2.603 1.429.697 3.021 1.173 4.647 1.068 1.615-.093 3.207-.813 4.764-1.556 1.557-.779 3.079-1.685 4.589-2.661.848-.546 1.685-1.115 2.44-1.662l-.151.279c.79-9.817 1.522-18.903 2.138-26.502l.29.337c-6.762-.592-12.362-1.08-16.382-1.44-1.928-.186-3.462-.337-4.601-.442-.488-.058-.894-.093-1.22-.128-.302-.046-.441-.069-.453-.081z" fill="#263238"/><path d="m475.906 138.449s-3.009.872-10.724 4.985c-7.564 4.031-16.161 7.726-16.161 7.726l.65 12.141 28.617-14.372" fill="#e0e0e0"/><path d="m443.386 144.932 5.635 6.228-3.01 13.013-5.019-11.758" fill="#e0e0e0"/><path d="m479.404 195.682c-.012.209-5.403-.035-12.014-.557-6.622-.512-11.979-1.104-11.955-1.313.011-.21 5.391.034 12.013.557 6.611.512 11.967 1.104 11.956 1.313z" fill="#263238"/><path d="m454.272 215.213c1.302 2.126 2.498 5.066 4.264 6.82s4.067 3.114 6.553 3.265c2.196.128 4.357-.686 6.216-1.848 3.009-1.882 4.857-4.844 6.193-8.132.186-.244-4.299 2.753-6.739 4.054-2.44 1.302-4.148 1.708-6.901 1.488-3.602-.303-6.844-3.277-9.586-5.647z" fill="#000" opacity=".0081"/><path d="m448.916 152.508c-.244.186-1.812 15.023-1.812 15.023l28.686-17.335-26.119 13.105z" fill="#000" opacity=".027"/><path d="m444.014 166.973s-6.983 28.14-9.597 62.624c-1.104 14.627-1.929 34.019-1.929 34.019l6.53 8.086 10.003-8.853s-.429-41.188.093-54.979c.43-11.351-1.359-40.293-1.359-40.293z" fill="#4c5fec"/><path d="m494.717 185.295c.023 0 .116.419.267 1.174.151.825.349 1.917.581 3.218.476 2.789 1.115 6.518 1.824 10.643.72 4.147 1.336 7.923 1.743 10.654.209 1.371.36 2.475.465 3.241.104.767.139 1.197.116 1.197s-.116-.418-.267-1.173c-.151-.825-.349-1.917-.581-3.219-.488-2.788-1.139-6.518-1.859-10.631-.721-4.159-1.313-7.923-1.72-10.654-.186-1.313-.337-2.405-.453-3.241-.105-.779-.139-1.209-.116-1.209z" fill="#263238"/><path d="m503.246 160.292c.046.058-.779.697-1.941 1.894s-2.626 2.998-3.822 5.228c-1.197 2.243-1.894 4.45-2.254 6.077-.36 1.626-.442 2.661-.512 2.661-.023 0-.023-.268-.011-.732.012-.477.093-1.151.244-1.987.29-1.662.953-3.927 2.173-6.216 1.231-2.277 2.753-4.09 3.985-5.24.615-.581 1.138-1.023 1.522-1.29.383-.279.604-.418.616-.395z" fill="#263238"/><path d="m449.114 156.969-2.567-.999-2.429 4.16-.441 6.843 3.427.546 2.568-4.218z" fill="#4c5fec"/><path d="m421.405 177.313c.104 0 .197 16.859.197 37.656s-.093 37.656-.197 37.656c-.105 0-.198-16.859-.198-37.656 0-20.786.093-37.656.198-37.656z" fill="#263238"/><path d="m449.289 151.056c.046.034-.546.952-1.464 2.474-.906 1.522-2.115 3.648-3.253 6.1-.093.198-.186.395-.267.581l-.175.383-.186-.383c-1.103-2.324-1.905-4.485-2.393-6.065-.244-.79-.43-1.429-.535-1.882-.104-.442-.151-.697-.127-.709.058-.012.36.941.918 2.498.557 1.545 1.394 3.672 2.498 5.984h-.361c.082-.186.175-.384.279-.593 1.15-2.463 2.405-4.589 3.381-6.076.488-.744.906-1.337 1.197-1.732.29-.383.465-.592.488-.58z" fill="#263238"/><path d="m478.498 148.383c.012.012-.128.093-.395.233-.302.162-.685.36-1.162.604-1.057.546-2.509 1.301-4.275 2.219-3.602 1.87-8.552 4.543-14.024 7.471-3.335 1.777-6.495 3.427-9.237 4.798l-.255.128v-.279c-.035-3.567-.07-6.564-.082-8.737 0-1.023 0-1.847 0-2.463.012-.57.024-.872.035-.872.023 0 .047.302.07.872.023.616.058 1.44.093 2.463.058 2.173.139 5.17.232 8.737l-.255-.151c2.73-1.394 5.879-3.056 9.213-4.833 5.472-2.928 10.434-5.554 14.082-7.378 1.824-.906 3.299-1.627 4.333-2.103.488-.221.883-.395 1.197-.535.267-.127.418-.185.43-.174z" fill="#263238"/><path d="m424.866 157.736c.058.035-.395.802-.976 2.091-.581 1.29-1.243 3.149-1.638 5.275-.383 2.126-.43 4.102-.349 5.519.082 1.418.233 2.289.163 2.301-.023 0-.093-.21-.174-.605-.093-.395-.186-.964-.267-1.684-.151-1.429-.163-3.439.232-5.612.407-2.173 1.127-4.043 1.778-5.321.325-.639.615-1.151.848-1.476.232-.325.36-.499.383-.488z" fill="#263238"/><path d="m446.477 167.96c-.058.093-.709-.209-1.452-.685-.744-.465-1.302-.93-1.243-1.023.058-.092.708.21 1.452.686.743.476 1.301.929 1.243 1.022z" fill="#263238"/><path d="m447.708 166.299c-.104.046-.883-1.51-1.742-3.462-.86-1.952-1.476-3.579-1.371-3.625.104-.047.883 1.51 1.742 3.462.86 1.952 1.476 3.579 1.371 3.625z" fill="#263238"/><path d="m519.487 235.325s-.034-.058-.104-.175c-.07-.127-.163-.302-.267-.523-.117-.232-.256-.522-.43-.859-.209-.314-.453-.686-.732-1.092-1.127-1.627-3.056-3.788-5.74-6.24-2.672-2.463-6.065-5.228-9.887-8.388-1.894-1.592-3.916-3.265-5.937-5.136-2.022-1.859-4.102-3.869-5.961-6.204l.291.012c-3.59 3.753-7.482 7.831-11.514 12.048-.523.546-1.057 1.104-1.534 1.604l.024-.256c4.357 6.367 8.318 12.525 12.478 17.695 2.068 2.591 4.194 4.915 6.262 7.006s4.078 3.95 6.088 5.426c3.986 3.009 7.982 4.299 10.759 4.229.349 0 .674.012.976 0 .302-.035.593-.058.86-.093.267-.023.511-.058.732-.081.221-.047.418-.093.592-.14.337-.069.616-.128.814-.174.186-.035.279-.058.279-.047 0 .012-.093.035-.268.082-.197.058-.464.128-.801.209-.175.046-.384.093-.593.151-.221.035-.476.058-.732.093-.267.035-.558.07-.86.116-.313.023-.639.012-.987.012-2.812.116-6.89-1.15-10.922-4.16-2.033-1.475-4.078-3.323-6.157-5.414-2.092-2.08-4.241-4.403-6.321-7.006-4.194-5.17-8.168-11.34-12.525-17.695l-.093-.139.117-.117c.488-.511 1.01-1.057 1.533-1.603 4.043-4.217 7.936-8.284 11.537-12.037l.151-.162.14.174c1.836 2.312 3.904 4.31 5.902 6.169 2.01 1.859 4.02 3.544 5.914 5.147 3.799 3.184 7.18 5.972 9.841 8.47 2.672 2.475 4.589 4.683 5.681 6.344.267.418.5.79.709 1.115.163.337.29.628.407.872.104.221.174.395.244.534.011.175.034.233.034.233z" fill="#263238"/><path d="m463.905 226.878c-.151-.627-.349-1.325-.883-1.673-.953-.616-2.138.197-3.114.778-2.567 1.522-5.728 1.476-8.714 1.348-8.981-.395-17.974-1.057-26.838-2.544-4.346-.732-8.726-1.673-12.607-3.753-3.88-2.08-7.273-5.426-8.516-9.655l-2.08-1.127c1.604 3.427 1.441 13.152 2.022 16.893s2.242 6.414 5.844 7.587c1.452.465 3.009.395 4.531.325 14.791-.732 29.72-.069 44.511-.801 2.114-.105 4.554-.395 5.693-2.173.953-1.51.569-3.474.151-5.205z" fill="#000" opacity=".0081"/><path d="m473.246 193.3s-7.006-8.016-8.261-7.133-3.079 1.371-1.313 4.624c1.754 3.253 4.671 5.066 5.217 7.831s-.07 9.422 3.02 11.676c3.079 2.266 7.378 8.122 7.378 8.122l10.689-11.177-4.229-3.195s2.556-6.402 2.533-9.748-2.277-7.518-2.277-7.518-.372-2.695-2.301-4.356c0 0-.267-2.15-.848-4.264-.581-2.115-8.261-9.528-8.261-9.528s-2.521 1.778-.871 4.473c1.65 2.696 3.52 4.88 3.52 4.88l-7.017-.848s-.895 3.521 2.962 4.52c3.858.987 4.776 2.405 4.776 2.405l-4.787 1.58s.221 2.823 2.312 2.893 2.091.07 2.091.07z" fill="#deaa96"/><path d="m475.07 188.502c.953-.035 2.277-.07 4.636-.151h.07l.046.058c.755.918 1.557 2.138 1.836 3.695s-.07 3.299-.941 4.845c-.999 1.673-2.475 2.8-3.66 3.88-1.22 1.069-2.219 2.15-2.754 3.23-.546 1.081-.662 2.092-.615 2.754.046.674.22 1.034.174 1.045-.012 0-.058-.081-.128-.244-.07-.174-.151-.429-.197-.778-.105-.685-.024-1.754.511-2.893.523-1.15 1.545-2.289 2.753-3.381 1.197-1.104 2.626-2.231 3.567-3.811.825-1.452 1.174-3.137.918-4.589-.232-1.464-.988-2.649-1.696-3.567l.116.058c-2.858.023-4.647-.046-4.636-.151z" fill="#65463c"/><path d="m484.853 186.678c-.058.035-.256-.384-.709-.918s-1.231-1.139-2.265-1.429c-1.034-.291-2.034-.279-2.742-.267-.721.023-1.162.058-1.174 0-.012-.047.43-.186 1.15-.279.721-.081 1.766-.151 2.87.163.546.162 1.046.406 1.452.697.407.29.709.639.918.941.43.627.535 1.08.5 1.092z" fill="#65463c"/><path d="m482.936 181.403c-.082.081-1.127-.964-2.673-1.87-1.545-.918-2.962-1.313-2.927-1.43.011-.104 1.533.14 3.137 1.093 1.603.941 2.544 2.149 2.463 2.207z" fill="#65463c"/><path d="m397.261 192.011 9.225 34.832c.512 1.929 2.278 3.265 4.276 3.218l47.74-.941c2.719-.058 4.718-2.567 4.148-5.228l-7.029-33.357c-.418-1.998-2.196-3.439-4.241-3.439h-50.343c-2.567.012-4.438 2.428-3.776 4.915z" fill="#263238"/><path d="m393.241 199.877c-1.046-1.162-.953-3.068-.023-4.323.941-1.254 2.532-1.882 4.101-1.94 1.568-.058 3.102.384 4.554.941 1.801.686 3.532 1.557 5.171 2.58 1.15.72 2.347 1.661 2.579 3.009.221 1.348-1.232 2.881-2.417 2.207 1.534.651 3.091 2.278 3.335 3.974s-.662 2.614-2.312 3.102c1.254.488 2.056 2.056 1.475 3.276-.604 1.278-2.37 1.627-3.683 1.127-1.324-.499-2.289-1.615-3.207-2.695.942 1.615 1.267 3.567.918 5.402-3.636-1.243-6.425-4.67-6.901-8.481-1.778-1.336-2.382-4.032-1.325-5.995-1.464-.453-3.125-2.696-3.009-4.229" fill="#deaa96"/><path d="m408.194 209.45c-.047.047-.616-.453-1.569-1.197-.952-.731-2.347-1.731-4.147-2.114-.883-.186-1.767-.186-2.522 0s-1.382.546-1.835.918c-.918.767-1.127 1.545-1.197 1.51-.023-.011 0-.197.139-.523.14-.325.407-.766.872-1.196.464-.43 1.115-.837 1.928-1.058.814-.22 1.755-.232 2.696-.035 1.894.407 3.311 1.499 4.241 2.289.929.802 1.429 1.371 1.394 1.406z" fill="#65463c"/><path d="m407.799 202.514c-.024.058-.767-.232-1.906-.802-.569-.279-1.254-.604-2.033-.883-.778-.267-1.673-.511-2.614-.674-.941-.162-1.859-.185-2.649-.023-.802.151-1.476.488-1.964.86-1.01.744-1.22 1.568-1.289 1.534-.024-.012 0-.21.151-.546.151-.326.453-.791.952-1.209.5-.418 1.209-.801 2.069-.987.848-.186 1.824-.175 2.8-.012.976.174 1.87.418 2.672.732s1.475.674 2.033.976c1.104.616 1.801.988 1.778 1.034z" fill="#65463c"/><path d="m501.095 250.696c-.383-1.383.117-1.383-.975-2.301-4.218-3.543-8.25-8.133-11.061-11.63-3.405-4.252-8.703-12.896-8.703-12.896l-1.254-.384c1.08 6.216 4.217 11.863 7.296 17.382 1.685 3.009 3.381 6.041 5.67 8.621 2.289 2.579 5.251 4.693 8.632 5.367.744-1.231.779-2.788.395-4.159z" fill="#000" opacity=".0081"/></g></svg>