<svg fill="none" height="595" viewBox="0 0 792 595" width="792" xmlns="http://www.w3.org/2000/svg" xmlns:xlink="http://www.w3.org/1999/xlink"><linearGradient id="a" gradientUnits="userSpaceOnUse" x1="625.169" x2="167.758" y1="-.000224" y2="402.33"><stop offset="0" stop-color="#7f52f1"/><stop offset=".474784" stop-color="#5786f1"/><stop offset="1" stop-color="#1dd4f1"/></linearGradient><path d="m791.273 297.5c0 164.305-133.195 297.5-297.5 297.5-164.304 0-375.5-133.195-375.5-297.5s211.196-297.5 375.5-297.5c164.305 0 297.5 133.195 297.5 297.5z" fill="url(#a)" opacity=".3"/><path d="m220.025 468.948h-220.02597656v-369.6753h220.02597656z" fill="#4356da"/><path d="m6.89447 99.2698h220.02653v369.6752h-220.02653z" fill="#5468ff"/><path d="m21.3578 119.924h190.5792v128.762h-190.5792z" fill="#f3f9ff"/><path d="m24.644 369.52h102.283v68.75h-102.283z" fill="#f3f9ff"/><path d="m204.078 185.643s-32.541-4.052-52.425 14.262c-19.883 18.319-56.9257 1.624-71.8402 0-25.9294-2.822-46.261 5.661-52.2873 14.986v27.977h176.5525z" fill="#8693ff"/><g fill="#5468ff"><path d="m177.492 140.617h1.364v43.686h-1.364z"/><path d="m123.983 159.364h1.364v43.686h-1.364z"/><path d="m68.7697 149.481h1.3641v43.687h-1.3641z"/><path d="m162.27 147.323h10.452c.625 0 1.136-.511 1.136-1.136s-.511-1.136-1.136-1.136h-10.452c-.625 0-1.137.511-1.137 1.136s.512 1.136 1.137 1.136z"/><path d="m162.27 151.412h10.452c.625 0 1.136-.511 1.136-1.136s-.511-1.136-1.136-1.136h-10.452c-.625 0-1.137.511-1.137 1.136s.512 1.136 1.137 1.136z"/><path d="m109.555 169.589h10.453c.625 0 1.136-.511 1.136-1.136s-.511-1.136-1.136-1.136h-10.453c-.625 0-1.136.511-1.136 1.136s.511 1.136 1.136 1.136z"/><path d="m109.555 173.595h10.453c.625 0 1.136-.511 1.136-1.136s-.511-1.136-1.136-1.136h-10.453c-.625 0-1.136.511-1.136 1.136s.511 1.136 1.136 1.136z"/><path d="m53.4317 153.118h10.4528c.625 0 1.136-.511 1.136-1.136s-.511-1.137-1.136-1.137h-10.4528c-.625 0-1.136.512-1.136 1.137s.511 1.136 1.136 1.136z"/><path d="m53.4317 157.123h10.4528c.625 0 1.136-.511 1.136-1.136s-.511-1.136-1.136-1.136h-10.4528c-.625 0-1.136.511-1.136 1.136s.511 1.136 1.136 1.136z"/></g><path d="m21.5818 284.63c-1.665-10.258 5.3018-19.925 15.5606-21.589 10.2589-1.665 19.9251 5.301 21.59 15.56 1.665 10.259-5.3018 19.925-15.5607 21.59-10.2588 1.665-19.925-5.302-21.5899-15.561z" fill="#f3f9ff"/><path d="m22.9544 281.625c0 9.513 7.7128 17.222 17.222 17.222 4.4893 0 8.5777-1.718 11.64-4.533l-11.64-12.689v-17.222c-9.5092 0-17.222 7.708-17.222 17.222z" fill="#8693ff"/><path d="m46.7379 278.59h6.1837c.283 0 .5188-.232.5188-.519 0-.283-.2318-.519-.5188-.519h-6.1837c-.283 0-.5188.232-.5188.519 0 .283.2319.519.5188.519z" fill="#5468ff"/><path d="m105.715 281.624c0-10.393-8.4244-18.818-18.8182-18.818s-18.8181 8.425-18.8181 18.818c0 10.394 8.4243 18.819 18.8181 18.819 10.3938-.004 18.8182-8.429 18.8182-18.819z" fill="#f3f9ff"/><path d="m86.8961 281.624-10.5826 13.59c2.9208 2.28 6.5925 3.636 10.5826 3.636 9.5132 0 17.2259-7.712 17.2259-17.222 0-9.509-7.7088-17.222-17.2259-17.222-8.9786 0-16.3573 6.876-17.1514 15.65z" fill="#8693ff"/><path d="m73.6336 285.882h4.3045c.283 0 .5189-.232.5189-.519 0-.283-.2319-.519-.5189-.519h-4.3045c-.283 0-.5189.232-.5189.519.0039.283.2359.519.5189.519z" fill="#5468ff"/><path d="m58.9941 333.452c0-10.394-8.4243-18.818-18.8181-18.818s-18.818 8.424-18.818 18.818 8.4242 18.818 18.818 18.818 18.8181-8.428 18.8181-18.818z" fill="#f3f9ff"/><path d="m22.9534 333.452c0 9.513 7.7128 17.222 17.2221 17.222 4.4893 0 8.5776-1.718 11.6399-4.532l-11.6399-12.694v-17.222c-9.5093.004-17.2221 7.713-17.2221 17.226z" fill="#8693ff"/><path d="m46.7369 330.417h6.1837c.2831 0 .5189-.232.5189-.519 0-.283-.2319-.519-.5189-.519h-6.1837c-.283 0-.5188.232-.5188.519s.2319.519.5188.519z" fill="#5468ff"/><path d="m105.715 333.452c0-10.394-8.4244-18.818-18.8182-18.818s-18.8181 8.424-18.8181 18.818 8.4243 18.818 18.8181 18.818 18.8182-8.428 18.8182-18.818z" fill="#f3f9ff"/><path d="m69.7447 331.88c.7941-8.774 8.1688-15.65 17.1514-15.65 9.5132 0 17.2259 7.713 17.2259 17.222 0 9.513-7.7088 17.222-17.2259 17.222-3.9901 0-7.6618-1.356-10.5826-3.632l10.5826-13.59z" fill="#8693ff"/><path d="m73.6336 337.709h4.3045c.283 0 .5189-.231.5189-.518 0-.284-.2319-.519-.5189-.519h-4.3045c-.283 0-.5189.232-.5189.519.0039.287.2359.518.5189.518z" fill="#5468ff"/><path d="m29.0554 433.467h93.8826v-55.476h-1.168v54.308h-92.7146z" fill="#5468ff"/><path d="m93.5876 413.407c11.4944-9.148 23.7164 0 23.7164 0v15.641h-85.9218v-40.431c23.3506.59 50.7148 33.937 62.2054 24.79z" fill="#5468ff"/><path d="m116.321 382.221h-40.0341c-.5425 0-.9828-.444-.9828-.983 0-.542.4442-.983.9828-.983h40.0341c.542 0 .983.445.983.983 0 .543-.445.983-.983.983z" fill="#5468ff"/><path d="m116.321 387.029h-40.0341c-.5425 0-.9828-.444-.9828-.983 0-.542.4442-.983.9828-.983h40.0341c.542 0 .983.444.983.983 0 .542-.445.983-.983.983z" fill="#5468ff"/><path d="m116.498 391.569h-26.5074c-.4442 0-.8058-.362-.8058-.806v-.358c0-.444.3616-.805.8058-.805h26.5074c.444 0 .806.361.806.805v.358c0 .44-.362.806-.806.806z" fill="#5468ff"/><path d="m257.079 213.908h220.026v123.868h-220.026z" fill="#aed3ff"/><path d="m249.925 213.908h220.026v123.868h-220.026z" fill="#5468ff"/><path d="m381.646 301.172c-15.535-15.536-15.535-40.724 0-56.26 15.536-15.536 40.725-15.536 56.261 0s15.536 40.724 0 56.26-40.725 15.536-56.261 0z" fill="#f3f9ff"/><path d="m274.659 250.821h65.904c2.39 0 4.344 1.954 4.344 4.344s-1.954 4.344-4.344 4.344h-65.904c-2.39 0-4.344-1.954-4.344-4.344s1.954-4.344 4.344-4.344z" fill="#f3f9ff"/><path d="m274.659 268.699h65.904c2.39 0 4.344 1.954 4.344 4.344s-1.954 4.344-4.344 4.344h-65.904c-2.39 0-4.344-1.954-4.344-4.344s1.954-4.344 4.344-4.344z" fill="#f3f9ff"/><path d="m274.659 286.582h65.904c2.39 0 4.344 1.954 4.344 4.344s-1.954 4.343-4.344 4.343h-65.904c-2.39 0-4.344-1.953-4.344-4.343s1.954-4.344 4.344-4.344z" fill="#f3f9ff"/><path d="m446.2 272.465h-36.425v-36.425c20.115 0 36.425 16.31 36.425 36.425z" fill="#3a4ace"/><path d="m373.349 273.637h36.426 36.425c0 20.115-16.31 36.425-36.425 36.425-20.116 0-36.426-16.31-36.426-36.425z" fill="#3a4ace"/><path d="m416.068 253.738h19.77c1.124 0 2.044.919 2.044 2.044 0 1.124-.92 2.044-2.044 2.044h-19.77c-1.124 0-2.044-.92-2.044-2.044-.004-1.125.916-2.044 2.044-2.044z" fill="#6d89d0"/><path d="m431.333 261.179h4.501c1.124 0 2.044.92 2.044 2.044s-.92 2.044-2.044 2.044h-4.501c-1.125 0-2.044-.92-2.044-2.044s.919-2.044 2.044-2.044z" fill="#6d89d0"/><path d="m386.718 282.541h19.769c1.124 0 2.044.92 2.044 2.044s-.92 2.044-2.044 2.044h-19.769c-1.125 0-2.044-.92-2.044-2.044s.919-2.044 2.044-2.044z" fill="#5468ff"/><path d="m401.982 289.982h4.501c1.124 0 2.044.92 2.044 2.045 0 1.124-.92 2.044-2.044 2.044h-4.501c-1.124 0-2.044-.92-2.044-2.044 0-1.125.92-2.045 2.044-2.045z" fill="#5468ff"/><path d="m492.601 359.955v126.679h-220.027v-126.679z" fill="#aed3ff"/><path d="m485.447 359.955v126.679h-220.026v-126.679z" fill="#5468ff"/><path d="m389.601 437.001c-9.74-19.695-1.67-43.557 18.025-53.297s43.557-1.669 53.297 18.026 1.67 43.556-18.025 53.296c-19.696 9.74-43.557 1.67-53.297-18.025z" fill="#f3f9ff"/><path d="m356.06 405.847h-65.904c-2.39 0-4.344-1.954-4.344-4.344s1.954-4.344 4.344-4.344h65.904c2.391 0 4.344 1.954 4.344 4.344-.004 2.39-1.957 4.344-4.344 4.344z" fill="#f3f9ff"/><path d="m290.158 415.042h65.904c2.391 0 4.344 1.953 4.344 4.343s-1.953 4.344-4.344 4.344h-65.904c-2.39 0-4.344-1.954-4.344-4.344s1.954-4.343 4.344-4.343z" fill="#f3f9ff"/><path d="m290.158 432.924h65.904c2.391 0 4.344 1.953 4.344 4.343 0 2.391-1.953 4.344-4.344 4.344h-65.904c-2.39 0-4.344-1.953-4.344-4.344 0-2.39 1.954-4.343 4.344-4.343z" fill="#f3f9ff"/><path d="m425.274 420.03 36.421-.464c.004.153.004.311.004.464 0 20.115-16.31 36.425-36.425 36.425-7.19 0-13.897-2.087-19.542-5.684z" fill="#3a4ace"/><path d="m423.934 431.501h19.769c1.124 0 2.044.92 2.044 2.044s-.92 2.044-2.044 2.044h-19.769c-1.125 0-2.045-.92-2.045-2.044-.004-1.124.916-2.044 2.045-2.044z" fill="#5468ff"/><path d="m439.198 438.942h4.501c1.124 0 2.044.92 2.044 2.045 0 1.124-.92 2.044-2.044 2.044h-4.501c-1.124 0-2.044-.92-2.044-2.044 0-1.125.92-2.045 2.044-2.045z" fill="#5468ff"/><path d="m272.573 78.8164h220.027v114.7916h-220.027z" fill="#aed3ff"/><path d="m265.42 78.8164h220.026v114.7916h-220.026z" fill="#5468ff"/><path d="m413.128 175.782c-20.923-6.705-32.449-29.103-25.744-50.026 6.706-20.923 29.104-32.4491 50.027-25.743 20.923 6.705 32.449 29.103 25.743 50.026-6.705 20.923-29.103 32.449-50.026 25.743z" fill="#f3f9ff"/><path d="m425.273 101.479c20.115 0 36.425 16.306 36.425 36.421 0 13.779-7.654 25.773-18.944 31.96-5.833-10.806-17.481-31.96-17.481-31.96l-17.246 32.086c-11.416-6.148-19.176-18.209-19.176-32.086 0-20.115 16.307-36.421 36.422-36.421z" fill="#3a4ace"/><path d="m290.158 115.674h65.904c2.391 0 4.344 1.954 4.344 4.344s-1.953 4.344-4.344 4.344h-65.904c-2.39 0-4.344-1.954-4.344-4.344s1.954-4.344 4.344-4.344z" fill="#f3f9ff"/><path d="m290.158 133.557h65.904c2.391 0 4.344 1.953 4.344 4.343 0 2.391-1.953 4.344-4.344 4.344h-65.904c-2.39 0-4.344-1.953-4.344-4.344 0-2.39 1.954-4.343 4.344-4.343z" fill="#f3f9ff"/><path d="m290.158 151.439h65.904c2.391 0 4.344 1.954 4.344 4.344s-1.953 4.344-4.344 4.344h-65.904c-2.39 0-4.344-1.954-4.344-4.344s1.954-4.344 4.344-4.344z" fill="#f3f9ff"/><path d="m423.927 120.502h19.769c1.124 0 2.044.919 2.044 2.044 0 1.124-.92 2.044-2.044 2.044h-19.769c-1.125 0-2.044-.92-2.044-2.044 0-1.121.919-2.044 2.044-2.044z" fill="#6d89d0"/><path d="m439.196 127.943h4.501c1.124 0 2.044.92 2.044 2.044s-.92 2.044-2.044 2.044h-4.501c-1.124 0-2.044-.92-2.044-2.044 0-1.12.92-2.044 2.044-2.044z" fill="#6d89d0"/><path d="m542.694 528.123-5.149 21.688-7.713-.044-.283-21.644z" fill="#fc9490"/><path d="m477.815 529.047-14.651 20.764-5.708-7.332 8.818-16.286z" fill="#fc9490"/><path d="m515.907 243.143c2.662-1.513 5.854-1.678 8.087-1.545-.574-.593-1.706-.809-1.706-.809 1.383-.205 4.473 1.167 4.473 1.167 19.251-7.418 22.278 20.929 21.873 27.514-.401 6.584 6.47 8.735 16.483 13.924 19.109 9.898 20.787 23.154 20.787 23.154-.149.086-.302.188-.468.302-.947-1.607-2.901-4.623-4.544-5.079.063.146 1.946 4.152 2.646 6.451-5.637 4.289-16.184 13.791-23.536 20.528.032-1.316-.019-3.188-.499-4.174l-.908 5.468c-3.935 3.616-6.647 6.16-6.647 6.16.487-5.323-24.066-33.403-36.878-41.815-3.117-4.592-4.226-12.701-4.308-13.338.538 6.431 1.639 10.036 2.622 12.068-10.85-9.985-4.537-45.966 2.523-49.976z" fill="#163560"/><path d="m515.829 294.806c-.063.027 6.183 3.274 10.885 1.989 4.422-1.207 7.312-6.938 7.249-6.95-1.871-.374-2.414-2.945-2.375-14.003l-.845.165-14.234 2.819s.322 4.477.334 8.699c.012 3.542-.204 6.903-1.014 7.281z" fill="#fc9490"/><path d="m531.923 247.786s-7.021-7.473-15.838-.382c.003 0 5.134-.888 15.838.382z" fill="#e37970"/><path d="m516.513 278.826s.322 4.477.334 8.699c7.964-.224 12.174-7.489 13.9-11.518z" fill="#ff8585"/><path d="m532.213 274.458s4.175-6.596 5.178-12.233c.715-4.026-1.337-18.952-16.334-16.802 0 0-4.356.429-8.448 3.196-3.255 2.198-7.956 6.946-2.701 19.97l1.364 4.399z" fill="#163560"/><path d="m459.78 536.787 7.543.232 8.165.251s18.866-21.003 29.444-54.669c.248-.783.507-1.577.782-2.375 5.791-16.884 17.796-38.08 24.122-57.264 1.006-3.054 1.91-5.932 2.724-8.656.259-.873.515-1.73.755-2.571 4.662-16.2 6.01-26.833 7.256-38.198l-45.683.365c.004-.003-7.371 77.592-35.108 162.885z" fill="#163560"/><path d="m501.288 347.651c.114 21.739-3.188 31.063-3.188 31.063s19.561 9.938 42.806 2.622c.275-.086 19.246-4.418 19.246-4.418-.389-.881-3.848-15.528-4.226-16.338-4.909-10.539-8.636-15.162-9.218-18.401-1.081-6.05-1.105-12.308-.566-18.213 1.419-15.626 5.637-28.602 5.637-28.602-6.333-1.443-12.43-3.908-19.022-6.38-1.518 1.886-5.987 3.797-10.009 3.707-4.631-.103-6.077-2.06-5.908-4.266-4.934 2.748-8.857 5.358-8.857 5.358-4.194 7.285-12.701 14.361-13.315 25.537-.153 2.751 6.616 27.722 6.62 28.331z" fill="#e7f1fd"/><path d="m540.575 350.073c1.997 2.826 5.826 20.005 15.351 22.163-4.91-12.241-8.637-17.611-9.219-21.377-1.081-7.029-1.104-14.298-.566-21.157-3.188-5.59-5.566-9.419-5.566-9.419-.252-.904-5.067-15.799-6.612-2.485-1.541 13.319 4.379 29.114 6.612 32.275z" fill="#f2564b"/><path d="m513.852 282.824s18.845.31 18.857-11.428 2.453-19.604-9.576-20.3c-12.033-.696-14.372 3.782-15.331 7.697-.96 3.919 1.147 23.645 6.05 24.031z" fill="#fc9490"/><path d="m508.358 252.267c2.909-3.526 5.107-2.759 6.341-1.698 4.073-6.085 16.943 2.716 16.943 2.716 1.262 8.425 7.336 13.248 7.336 13.248s-3.436 2.123-11.353.087c-6.231-1.604-10.756-10.473-12.399-14.18-1.12.995-3.487 3.298-4.195 5.551-.939 2.987-1.36 9.144-3.156 8.935.004-.004-3.884-9.364.483-14.659z" fill="#163560"/><path d="m537.804 548.6s-.622 4.297.982 8.892c0 0 1.262 5.751-4.402 5.857-5.665.106-7.053-.428-6.412-3.954.641-3.527 1.859-9.628 1.859-9.628z" fill="#fc9490"/><path d="m527.434 566.172s.008.004.019.012h11.719c.012-.008.02-.012.02-.012.64-3.008-.405-8.676-.405-8.676-6.416 6.132-10.429-.153-10.429-.153-1.042 2.622-.924 8.829-.924 8.829z" fill="#163560"/><path d="m443.803 560.236s10.445-11.86 13.653-17.761l7.764 3.982-17.36 16.302-4.061-.534z" fill="#fc9490"/><path d="m437.4 566.148h14.49c1.278-1.148 2.492-3.467 3.982-6.502.853-1.741 2.768-2.7 4.729-3.227v9.729h3l2.775-10.346c1.848-3.468.46-6.648-.841-9.384-1.514-.004-5.901 1.089-13.617 9.954-2.536 2.913-5.335 3.95-8.114 3.864-.036.024-.079.047-.114.063-4.391 2.016-5.826 4.493-6.29 5.849z" fill="#163560"/><path d="m438.103 302.302s12.371 6.919 16.79 8.912c1.572.707 4.418 2.032 7.327 3.392 1.758.822 3.534 1.655 5.071 2.379 2.599 1.218 5.689.55 7.556-1.632 6.699-7.819 24.031-24.773 41.933-26.896l.063-.028s-.004.008-.008.02c.008 0 .016 0 .023-.004l-.098.193c-1.006 2.504-10.818 27.022-11.125 32.191-.322 5.453-1.281 89.137-1.281 89.137s.64 3.849-6.734 2.245c-7.375-1.604-9.297-3.208-9.297-3.208s7.052-51.623 5.13-69.58c-.378-3.522-.036-7.485.751-11.573-10.901 6.604-23.756 9.541-23.756 9.541s-4.796-2.092-12.245-6.707c-3.129-1.942-6.754-5.035-10.323-8.306-4.313-3.955-11.735-13.507-11.735-13.507z" fill="#e37970"/><path d="m467.324 537.019 8.165.252s18.866-21.004 29.444-54.67c.248-.782.507-1.576.782-2.374 5.791-16.884 17.796-38.081 24.121-57.264 1.007-3.055 1.911-5.932 2.725-8.656.259-.873.515-1.73.754-2.571l-6.726-5.107s-20.198 32.707-26.448 63.483c-5.433 26.735-27.183 58.907-32.817 66.907z" fill="#172d4d"/><path d="m525.888 472.978c-.114 14.969.64 49.378 2.59 63.624h7.233c3.998 0 5.991-.059 5.991-.059 4.891-24.769 8.37-45.266 10.901-62.928 2.08-14.494 3.924-26.916 5.347-37.613 1.43-10.763 2.425-19.777 2.779-27.392.055-1.199.094-2.366.118-3.498.023-1.14.027-2.245.019-3.318l-39.472-3.849c.5 26.228 4.557 66.333 4.494 75.033z" fill="#163560"/><path d="m535.712 536.606c3.998 0 5.991-.059 5.991-.059 4.89-24.77 8.369-45.266 10.901-62.929 2.079-14.494 3.923-26.916 5.346-37.612 1.431-10.764 2.426-19.777 2.779-27.392l-14.482 8.519s9.246 3.262 5.716 27.95c-3.526 24.691-11.341 88.024-16.251 91.523z" fill="#172d4d"/><path d="m533.85 408.37s2.779 10.044 12.398 8.763c9.62-1.282 23.3-7.056 23.3-7.056s-4.112-12.989-9.222-30.054c-6.188-20.657-13.85-47.29-17.458-64.088-1.015-4.705-1.706-8.636-1.962-11.455l-8.145-15.492s-11.734 26.711-12.375 33.445c-.645 6.738 13.464 85.937 13.464 85.937z" fill="#e37970"/><path d="m499.495 329.954c4.631.609 6.404 3.07 6.978 6.388.307 1.792 1.231 3.561 2.017 4.811 4.611.248 15.594.845 24.821 1.431l.762 12.104c-7.579-.943-16.896-2.866-27.616-6.537-.825-.142-1.851-.653-3.141-1.71-6.643-5.441-10.413-14.553-10.425-15.854-.015-1.31 1.974-1.243 6.604-.633z" fill="#fc9490"/><path d="m534.273 336.546c.428 10.901 2.995 32.066 25.866 43.391.059.027.122.059.181.086-6.187-20.657-13.849-47.29-17.458-64.088-4.198 6.278-8.821 14.608-8.589 20.611z" fill="#c45446"/><path d="m532.756 288.991s19.565 1.388 24.266 11.861c4.702 10.476 6.2 45.317.213 55.577 0 0-8.24 2.347-22.816-.377-.177-.032-.358-.067-.539-.102 0 0-4.65-11.385-.479-13.63 0 0 12.292.641 11.007-3.42-1.278-4.06-11.652-49.909-11.652-49.909z" fill="#e37970"/><path d="m424.844 294.082c10.527-1.352 13.18 8.22 13.18 8.22l-1.965 6.577c-3.243.448-6.085-.397-8.7-4.14-2.614-3.742-3.337-2.307-5-5.09-2.252-3.782 1.274-5.189 2.485-5.567z" fill="#fc9490"/><path d="m454.891 311.214c1.573.708 4.419 2.032 7.328 3.393-1.557 2.763-3.503 7.787-4.022 16.085-3.129-1.941-7.178-5.173-10.633-8.565-5.547-5.445-11.428-13.248-11.428-13.248l1.966-6.577c.004 0 12.371 6.919 16.789 8.912z" fill="#fc9490"/></svg>