<svg fill="none" height="580" viewBox="0 0 1440 580" width="1440" xmlns="http://www.w3.org/2000/svg" xmlns:xlink="http://www.w3.org/1999/xlink"><linearGradient id="a"><stop offset="0" stop-color="#7f52f1"/><stop offset=".474784" stop-color="#5786f1"/><stop offset="1" stop-color="#1dd4f1"/></linearGradient><linearGradient id="b" gradientUnits="userSpaceOnUse" x1="402" x2="742.352" xlink:href="#a" y1="-.000006" y2="743.257"/><linearGradient id="c" gradientUnits="userSpaceOnUse" x1="1038" x2="964.19" xlink:href="#a" y1="329.674" y2="703.139"/><path d="m1440 0h-394-1046v580h1440z" fill="url(#b)" opacity=".3"/><path d="m0 420 24-26.7c24-26.3 72-80.3 120-58.6 48 21.3 96 117.3 144 154.6 48 37.7 96 15.7 144 16 48-.3 96 21.7 144 0 48-21.3 96-85.3 144-90.6 48-5.7 96 48.3 144 69.3s96 11 144-26.7c48-37.3 96-101.3 144-112 48-10.3 96 31.7 144 74.7s96 85 120 106.7l24 21.3v32h-24c-24 0-72 0-120 0s-96 0-144 0-96 0-144 0-96 0-144 0-96 0-144 0-96 0-144 0-96 0-144 0-96 0-144 0-96 0-144 0-96 0-120 0h-24z" fill="url(#c)" opacity=".06"/></svg>