<svg fill="none" height="195" viewBox="0 0 1168 195" width="1168" xmlns="http://www.w3.org/2000/svg" xmlns:xlink="http://www.w3.org/1999/xlink"><linearGradient id="a"><stop offset="0" stop-color="#7f52f1"/><stop offset=".474784" stop-color="#5786f1"/><stop offset="1" stop-color="#1dd4f1"/></linearGradient><linearGradient id="b" gradientUnits="userSpaceOnUse" x1="841.933" x2="795.489" xlink:href="#a" y1="-.000002" y2="267.973"/><linearGradient id="c" gradientUnits="userSpaceOnUse" x1="69.2813" x2="294.313" xlink:href="#a" y1="185.386" y2="-306.887"/><mask id="d" height="195" maskUnits="userSpaceOnUse" width="1168" x="0" y="0"><rect fill="url(#b)" height="195" rx="5" width="1168"/></mask><rect fill="url(#b)" height="195" rx="5" width="1168"/><g mask="url(#d)"><path d="m-1 87.62 19.5-17.919c19.5-17.6506 58.5-53.8914 97.5-39.328 39 14.295 78 78.723 117 103.756 39 25.301 78 10.537 117 10.738 39-.201 78 14.563 117 0 39-14.295 78-57.247 117-60.804 39-3.8254 78 32.415 117 46.509s78 7.382 117-17.919c39-25.033 78-67.985 117-75.166 39-6.9126 78 21.2746 117 50.133 39 28.858 78 57.046 97.5 71.609l19.5 14.295v21.476h-19.5c-19.5 0-58.5 0-97.5 0s-78 0-117 0-78 0-117 0-78 0-117 0-78 0-117 0-78 0-117 0-78 0-117 0-78 0-117 0-78 0-117 0-78 0-97.5 0h-19.5z" fill="url(#c)" opacity=".1"/></g></svg>