<svg fill="none" height="510" viewBox="0 0 1440 510" width="1440" xmlns="http://www.w3.org/2000/svg" xmlns:xlink="http://www.w3.org/1999/xlink"><linearGradient id="a" gradientUnits="userSpaceOnUse" x1="1038" x2="804.185" y1="-.000005" y2="635.939"><stop offset="0" stop-color="#7f52f1"/><stop offset=".474784" stop-color="#5786f1"/><stop offset="1" stop-color="#1dd4f1"/></linearGradient><linearGradient id="b" gradientUnits="userSpaceOnUse" x1="720" x2="722.988" y1="636.772" y2="199.02"><stop offset="0" stop-color="#fff"/><stop offset="1" stop-color="#1e1e26"/></linearGradient><mask id="c" height="510" maskUnits="userSpaceOnUse" width="1440" x="0" y="0"><path d="m0 0h1440v510h-1440z" fill="url(#a)"/></mask><path d="m0 0h1440v510h-1440z" fill="#1e1e26"/><g mask="url(#c)"><path d="m0 362.627 24 27.305c24 26.896 72 82.12 120 59.928 48-21.783 96-119.959 144-158.104 48-38.555 96-16.056 144-16.363 48 .307 96-22.192 144 0 48 21.783 96 87.234 144 92.654 48 5.829 96-49.395 144-70.871s96-11.249 144 27.305c48 38.146 96 103.596 144 114.539 48 10.533 96-32.419 144-76.393 48-43.975 96-86.927 120-109.119l24-21.783v-32.725h-24c-24 0-72 0-120 0s-96 0-144 0-96 0-144 0-96 0-144 0-96 0-144 0-96 0-144 0-96 0-144 0-96 0-144 0-96 0-144 0-96 0-120 0h-24z" fill="url(#b)" opacity=".1"/></g></svg>