<svg fill="none" height="60" viewBox="0 0 253 60" width="253" xmlns="http://www.w3.org/2000/svg" xmlns:xlink="http://www.w3.org/1999/xlink"><linearGradient id="a"><stop offset="0" stop-color="#7f52f1"/><stop offset=".474784" stop-color="#5786f1"/><stop offset="1" stop-color="#1dd4f1"/></linearGradient><linearGradient id="b" gradientUnits="userSpaceOnUse" x1="198.455" x2="137.692" xlink:href="#a" y1="-22.9316" y2="92.4312"/><linearGradient id="c" gradientUnits="userSpaceOnUse" x1="38.3704" x2="-34.9209" xlink:href="#a" y1="-58.8433" y2="-34.5929"/><linearGradient id="d" gradientUnits="userSpaceOnUse" x1="14.9121" x2="18.042" xlink:href="#a" y1="33.802" y2="47.2105"/><linearGradient id="e" gradientUnits="userSpaceOnUse" x1="14.9121" x2="17.1205" xlink:href="#a" y1="26.6804" y2="38.0334"/><path d="m72.25 11.5c4.4667 0 8.3167 1.4167 11.55 4.25l-4.15 4.35c-1.2333-.9333-2.3833-1.6-3.45-2-1.0333-.4333-2.2333-.65-3.6-.65-2.5667 0-4.6167 1.0167-6.15 3.05-1.5333 2-2.3 5.05-2.3 9.15 0 4.4333.5833 7.5833 1.75 9.45 1.1667 1.8333 2.9833 2.75 5.45 2.75 1.7333 0 3.3-.3833 4.7-1.15v-7.85h-4.5l-.8-5.8h13.25v17.15c-1.8 1.1667-3.7833 2.0667-5.95 2.7s-4.3333.95-6.5.95c-5.2667 0-9.2333-1.5333-11.9-4.6-2.6667-3.1-4-7.6333-4-13.6 0-3.8.7167-7.0667 2.15-9.8 1.4667-2.7333 3.45-4.8 5.95-6.2 2.5333-1.4333 5.3667-2.15 8.5-2.15zm31.477 8.2c.966 0 1.85.1167 2.65.35l-1.25 7.65c-1-.2333-1.8-.35-2.4-.35-1.567 0-2.7671.55-3.6004 1.65-.8 1.0667-1.4334 2.6833-1.9 4.85v13.15h-7.9v-26.55h6.9l.65 5.15c.6-1.8333 1.5-3.2667 2.7-4.3 1.2334-1.0667 2.6164-1.6 4.1504-1.6zm25.01 19.6c0 1 .133 1.7333.4 2.2.3.4667.767.8167 1.4 1.05l-1.65 5.15c-1.633-.1333-2.967-.4833-4-1.05-1.033-.6-1.833-1.5333-2.4-2.8-1.733 2.6667-4.4 4-8 4-2.633 0-4.733-.7667-6.3-2.3s-2.35-3.5333-2.35-6c0-2.9 1.067-5.1167 3.2-6.65s5.217-2.3 9.25-2.3h2.7v-1.15c0-1.5667-.333-2.6333-1-3.2-.667-.6-1.833-.9-3.5-.9-.867 0-1.917.1333-3.15.4-1.233.2333-2.5.5667-3.8 1l-1.8-5.2c1.667-.6333 3.367-1.1167 5.1-1.45 1.767-.3333 3.4-.5 4.9-.5 3.8 0 6.583.7833 8.35 2.35s2.65 3.9167 2.65 7.05zm-11.95 2.9c1.8 0 3.2-.85 4.2-2.55v-4.7h-1.95c-1.8 0-3.15.3167-4.05.95-.867.6333-1.3 1.6167-1.3 2.95 0 1.0667.267 1.9.8 2.5.567.5667 1.333.85 2.3.85zm42.043-32.3v37.1h-7l-.4-3.1c-1.867 2.6333-4.384 3.95-7.55 3.95-3.3 0-5.817-1.2667-7.55-3.8-1.7-2.5333-2.55-6-2.55-10.4 0-2.7.45-5.1167 1.35-7.25s2.166-3.8 3.8-5c1.666-1.2 3.566-1.8 5.7-1.8 2.533 0 4.633.8333 6.3 2.5v-13.05zm-12.5 32.15c1.833 0 3.366-1 4.6-3v-11.45c-.634-.7667-1.284-1.3333-1.95-1.7-.634-.3667-1.367-.55-2.2-.55-1.467 0-2.634.6833-3.5 2.05-.867 1.3667-1.3 3.4667-1.3 6.3 0 3.1.366 5.2667 1.1 6.5.766 1.2333 1.85 1.85 3.25 1.85zm26.58-21.6v26.55h-7.9v-26.55zm-4-14c1.367 0 2.483.43333 3.35 1.3.9.83333 1.35 1.9 1.35 3.2s-.45 2.3833-1.35 3.25c-.867.8333-1.983 1.25-3.35 1.25s-2.483-.4167-3.35-1.25c-.867-.8667-1.3-1.95-1.3-3.25s.433-2.36667 1.3-3.2c.867-.86667 1.983-1.3 3.35-1.3zm33.361 26.75c0 1.1-.05 2.05-.15 2.85h-16.45c.267 2.2333.9 3.8 1.9 4.7s2.384 1.35 4.15 1.35c1.067 0 2.1-.1833 3.1-.55 1-.4 2.084-1 3.25-1.8l3.25 4.4c-3.1 2.4667-6.55 3.7-10.35 3.7-4.3 0-7.6-1.2667-9.9-3.8s-3.45-5.9333-3.45-10.2c0-2.7.484-5.1167 1.45-7.25.967-2.1667 2.384-3.8667 4.25-5.1 1.867-1.2667 4.1-1.9 6.7-1.9 3.834 0 6.834 1.2 9 3.6 2.167 2.4 3.25 5.7333 3.25 10zm-7.75-2.25c-.066-4.0667-1.5-6.1-4.3-6.1-1.366 0-2.433.5-3.2 1.5-.733 1-1.183 2.65-1.35 4.95h8.85zm27.738-11.35c2.3 0 4.1.7 5.4 2.1s1.95 3.3667 1.95 5.9v19.4h-7.9v-18.05c0-1.3333-.216-2.25-.65-2.75-.4-.5333-1.016-.8-1.85-.8-1.6 0-3.133 1.15-4.6 3.45v18.15h-7.9v-26.55h6.9l.55 3.15c1.134-1.3333 2.35-2.3333 3.65-3 1.334-.6667 2.817-1 4.45-1zm29.958 26.15c-.967.6667-2.1 1.1833-3.4 1.55-1.267.3667-2.534.55-3.8.55-5.8-.0333-8.7-3.2333-8.7-9.6v-12.3h-3.75v-5.5h3.75v-5.75l7.9-.9v6.65h6.1l-.85 5.5h-5.25v12.2c0 1.2333.2 2.1167.6 2.65s1.033.8 1.9.8c.9 0 1.85-.2833 2.85-.85z" fill="url(#b)"/><path d="m30.346 28.22h18.654v22.0541c-2.2479 2.3886-5.4612 4.6002-8.94 6.283-3.4253 1.6286-7.3056 2.4429-11.6407 2.4429-3.8535 0-7.4929-.6786-10.9182-2.0357-3.4253-1.4114-6.4492-3.3657-9.07165-5.8629-2.6225-2.5514-4.68303-5.5643-6.1816-9.0385-1.498565-3.4743-2.24785-7.3286-2.24785-11.5629s.749285-8.0886 2.24785-11.5629c1.49857-3.4742 3.5591-6.46 6.1816-8.9571 2.62245-2.55143 5.64635-4.50571 9.07165-5.86286 3.4253-1.41143 7.0647-2.11714 10.9182-2.11714 3.3718 0 6.2886.48857 8.7506 1.46571 2.4619.92286 4.6027 2.19858 6.4224 3.82715v11.40004c-1.2845-.9772-2.6225-1.9272-4.014-2.85-1.3915-.9229-2.9704-1.6829-4.7366-2.28-1.7126-.5972-3.7464-.8958-6.1013-.8958-3.2112 0-6.1281.7872-8.7506 2.3615s-4.7097 3.6914-6.2618 6.3514-2.3282 5.7-2.3282 9.12c0 3.3657.7761 6.4057 2.3282 9.12 1.5521 2.66 3.6393 4.7771 6.2618 6.3514 2.6225 1.52 5.5394 2.28 8.7506 2.28 2.462 0 4.4422-.2985 5.9408-.8957 1.4985-.5971 2.676-1.2486 3.5323-1.9543l.0803-9.0385h-7.9478z" fill="url(#c)"/><path d="m24.3378 41.102v-10.0059h24.6622v10.0059z" fill="url(#d)"/><path d="m24.3378 32.7637v-8.3383h24.6622v8.3383z" fill="url(#e)"/></svg>